<svg width="603" height="560" viewBox="0 0 603 560" fill="none" xmlns="http://www.w3.org/2000/svg">
<path d="M392.352 217.315L393.88 215.786L461.148 283.053L459.619 284.582L392.352 217.315Z" fill="#25272C"/>
<path d="M392.359 283.078L459.617 215.801L461.146 217.329L393.888 284.606L392.359 283.078Z" fill="#25272C"/>
<path d="M393.269 284.889L392.969 282.748C393.226 282.712 418.918 278.913 437.2 260.631C455.482 242.35 459.28 216.658 459.317 216.4L461.458 216.7C461.421 216.965 457.536 243.353 438.73 262.16C419.922 280.966 393.534 284.852 393.269 284.889Z" fill="#25272C"/>
<path d="M426.752 298.831C413.759 298.831 401.542 293.771 392.354 284.583C373.387 265.616 373.387 234.754 392.354 215.786C411.321 196.819 442.183 196.819 461.151 215.786C480.117 234.753 480.117 265.616 461.151 284.583C451.962 293.771 439.746 298.831 426.752 298.831ZM426.752 203.7C414.336 203.7 402.663 208.535 393.883 217.315C375.759 235.439 375.759 264.93 393.883 283.054C402.663 291.834 414.336 296.669 426.752 296.669C439.169 296.669 450.842 291.834 459.621 283.054L460.386 283.818L459.621 283.054C477.746 264.93 477.746 235.439 459.621 217.315C450.842 208.535 439.169 203.7 426.752 203.7Z" fill="#25272C"/>
<path d="M413.461 289.138C412.718 289.138 411.999 289.122 411.301 289.092C400.448 288.624 392.951 284.942 392.637 284.786L393.601 282.851C393.675 282.888 401.069 286.506 411.485 286.936C425.387 287.508 437.821 282.433 448.411 271.843C459.025 261.229 464.102 248.776 463.5 234.827C463.052 224.429 459.455 217.106 459.42 217.033L461.354 216.068C461.511 216.382 465.192 223.88 465.66 234.733C466.093 244.756 463.716 259.596 449.94 273.372C437.123 286.189 423.383 289.138 413.461 289.138Z" fill="#25272C"/>
<path d="M394.192 283.969L392.051 283.668C392.088 283.404 395.973 257.015 414.779 238.209C433.586 219.402 459.974 215.517 460.239 215.479L460.539 217.62C460.281 217.657 434.589 221.455 416.307 239.737C398.026 258.019 394.228 283.711 394.192 283.969Z" fill="#25272C"/>
<path d="M392.153 284.3C391.997 283.987 388.316 276.488 387.847 265.635C387.415 255.612 389.791 240.773 403.567 226.997C417.343 213.221 432.179 210.845 442.206 211.276C453.059 211.745 460.557 215.426 460.871 215.582L459.907 217.517C459.833 217.481 452.438 213.862 442.023 213.433C428.11 212.855 415.686 217.935 405.096 228.525C394.507 239.115 389.429 251.539 390.004 265.452C390.434 275.868 394.052 283.263 394.088 283.337L392.153 284.3Z" fill="#25272C"/>
<path d="M440.768 295.73C438.867 290.967 432.623 278.066 415.748 261.192C398.875 244.318 385.975 238.074 381.211 236.172L382.013 234.164C386.9 236.116 400.12 242.506 417.277 259.663C434.435 276.821 440.825 290.04 442.776 294.928L440.768 295.73Z" fill="#25272C"/>
<path d="M422.508 297.896C420.548 292.505 415.838 283.706 404.536 272.403C393.17 261.037 384.338 256.334 378.93 254.39L379.661 252.356C385.276 254.375 394.415 259.226 406.065 270.875C417.648 282.457 422.505 291.561 424.54 297.158L422.508 297.896Z" fill="#25272C"/>
<path d="M471.498 266.204C466.611 264.254 453.391 257.864 436.232 240.705C419.076 223.548 412.686 210.328 410.734 205.441L412.742 204.639C414.643 209.402 420.888 222.303 437.762 239.176C454.636 256.051 467.536 262.295 472.299 264.196L471.498 266.204Z" fill="#25272C"/>
<path d="M473.727 247.969C468.131 245.934 459.028 241.077 447.445 229.494C435.796 217.845 430.944 208.706 428.926 203.091L430.96 202.359C432.904 207.767 437.607 216.599 448.973 227.965C460.275 239.268 469.074 243.977 474.465 245.938L473.727 247.969Z" fill="#25272C"/>
<path d="M129.484 309.307H131.211V386.02H129.484V309.307Z" fill="#FFD32A"/>
<path d="M168.703 346.8V348.526H91.9906V346.8H168.703Z" fill="#FFD32A"/>
<path d="M102.609 321.151L103.83 319.93L158.074 374.174L156.853 375.394L102.609 321.151Z" fill="#FFD32A"/>
<path d="M156.859 319.926L158.08 321.147L103.837 375.39L102.616 374.17L156.859 319.926Z" fill="#FFD32A"/>
<path d="M130.347 354.511C134.129 354.511 137.195 351.445 137.195 347.663C137.195 343.882 134.129 340.816 130.347 340.816C126.566 340.816 123.5 343.882 123.5 347.663C123.5 351.445 126.566 354.511 130.347 354.511Z" fill="#FFD32A"/>
<path d="M7.6203 214.47L405.893 220.895L404.923 281.013C404.807 288.175 398.907 293.888 391.744 293.773L19.4102 287.766C12.2475 287.65 6.53443 281.75 6.65017 274.587L7.6203 214.47Z" fill="white"/>
<path d="M391.955 294.855C391.877 294.855 391.8 294.855 391.722 294.853L19.3878 288.846C15.6353 288.786 12.1302 287.268 9.51903 284.571C6.90783 281.874 5.5041 278.322 5.56436 274.569L6.55156 213.371L406.986 219.831L405.999 281.03C405.938 284.783 404.419 288.287 401.723 290.898C399.083 293.455 395.621 294.855 391.955 294.855ZM8.67903 215.568L7.7265 274.605C7.6753 277.78 8.86409 280.786 11.0726 283.068C13.2822 285.349 16.2476 286.634 19.4236 286.685L391.757 292.692C394.958 292.743 397.938 291.555 400.22 289.346C402.501 287.136 403.786 284.171 403.837 280.995L404.789 221.958L8.67903 215.568Z" fill="#25272C"/>
<path d="M160.689 234.494L252.251 235.972C262.943 236.144 271.47 244.951 271.298 255.643C271.125 266.334 262.318 274.861 251.627 274.689L160.065 273.212C149.373 273.039 140.846 264.232 141.018 253.541C141.19 242.849 149.997 234.321 160.689 234.494Z" fill="#25272C"/>
<path d="M21.3575 166.947L393.691 172.953C400.854 173.069 406.567 178.969 406.451 186.132L405.89 220.895L7.61719 214.47L8.17826 179.707C8.29452 172.544 14.1948 166.831 21.3575 166.947Z" fill="white"/>
<path d="M406.954 221.993L6.51953 215.533L7.0982 179.689C7.22193 172.018 13.5014 165.864 21.1451 165.864C21.2219 165.864 21.2982 165.864 21.375 165.865L393.709 171.872C397.462 171.933 400.967 173.451 403.578 176.148C406.189 178.845 407.593 182.397 407.533 186.149L406.954 221.993ZM8.71633 213.406L404.827 219.797L405.371 186.114C405.422 182.939 404.234 179.934 402.025 177.651C399.816 175.37 396.85 174.085 393.675 174.034L21.3409 168.027C21.2758 168.026 21.2107 168.025 21.1462 168.025C14.6779 168.025 9.36486 173.233 9.26033 179.724L8.71633 213.406Z" fill="#25272C"/>
<path d="M36.6981 198.609C40.8634 198.609 44.24 195.232 44.24 191.067C44.24 186.902 40.8634 183.525 36.6981 183.525C32.5329 183.525 29.1562 186.902 29.1562 191.067C29.1562 195.232 32.5329 198.609 36.6981 198.609Z" fill="#05C46B"/>
<path d="M36.701 199.689C36.653 199.689 36.6055 199.688 36.558 199.688C34.2551 199.651 32.1036 198.719 30.502 197.064C28.9004 195.409 28.0386 193.23 28.0754 190.927C28.1122 188.624 29.0439 186.474 30.6988 184.872C32.3538 183.27 34.5559 182.406 36.8359 182.445C41.59 182.522 45.3954 186.452 45.3186 191.206C45.2818 193.509 44.35 195.659 42.6951 197.261C41.0748 198.83 38.9506 199.689 36.701 199.689ZM36.6951 184.606C33.1804 184.606 30.2935 187.436 30.237 190.962C30.2092 192.687 30.8551 194.321 32.0551 195.56C33.2556 196.8 34.8668 197.498 36.5927 197.526C38.3255 197.553 39.9516 196.908 41.1911 195.708C42.4311 194.508 43.1292 192.896 43.1575 191.17L44.238 191.188L43.1575 191.17C43.2146 187.608 40.3639 184.664 36.8018 184.606C36.766 184.606 36.7303 184.606 36.6951 184.606Z" fill="#05C46B"/>
<path d="M62.7528 199.029C66.9181 199.029 70.2947 195.652 70.2947 191.487C70.2947 187.321 66.9181 183.945 62.7528 183.945C58.5875 183.945 55.2109 187.321 55.2109 191.487C55.2109 195.652 58.5875 199.029 62.7528 199.029Z" fill="#FFD32A"/>
<path d="M62.758 200.11C62.7105 200.11 62.6636 200.11 62.6166 200.109C57.8625 200.032 54.0572 196.102 54.134 191.349C54.1708 189.046 55.1025 186.895 56.7574 185.293C58.3777 183.724 60.502 182.865 62.7516 182.865C62.7996 182.865 62.847 182.865 62.8945 182.866C67.6486 182.943 71.454 186.873 71.3772 191.626C71.3014 196.333 67.4481 200.11 62.758 200.11ZM62.7526 185.026C61.0668 185.026 59.4753 185.67 58.2614 186.846C57.0214 188.046 56.3233 189.657 56.295 191.383C56.238 194.945 59.0886 197.89 62.6508 197.947C64.3985 197.971 66.0092 197.329 67.2492 196.129C68.4892 194.928 69.1873 193.317 69.2156 191.591C69.2433 189.866 68.5974 188.233 67.3969 186.993C66.1964 185.753 64.5852 185.055 62.8598 185.027C62.8241 185.026 62.7884 185.026 62.7526 185.026Z" fill="#FFD32A"/>
<path d="M88.8153 199.449C92.9806 199.449 96.3572 196.072 96.3572 191.907C96.3572 187.742 92.9806 184.365 88.8153 184.365C84.6501 184.365 81.2734 187.742 81.2734 191.907C81.2734 196.072 84.6501 199.449 88.8153 199.449Z" fill="#F53B57"/>
<path d="M88.8142 200.53C88.7662 200.53 88.7188 200.529 88.6713 200.529C86.3684 200.492 84.2174 199.56 82.6158 197.905C81.0132 196.251 80.1518 194.071 80.1886 191.768C80.2649 187.062 84.1177 183.285 88.8078 183.285C88.8553 183.285 88.9022 183.285 88.9492 183.286C91.2521 183.323 93.4036 184.254 95.0052 185.909C96.6068 187.564 97.4686 189.743 97.4318 192.046L96.3513 192.029L97.4318 192.046C97.395 194.349 96.4633 196.5 94.8084 198.102C93.1886 199.671 91.0644 200.53 88.8142 200.53ZM88.8089 185.446C85.2942 185.446 82.4073 188.276 82.3508 191.803C82.2937 195.365 85.1444 198.309 88.7065 198.367C90.4446 198.388 92.0654 197.748 93.3049 196.548C94.5449 195.348 95.243 193.736 95.2713 192.011C95.299 190.285 94.6532 188.652 93.4532 187.412C92.2526 186.172 90.6414 185.474 88.9156 185.446C88.8793 185.447 88.8441 185.446 88.8089 185.446Z" fill="#F53B57"/>
<path d="M234.906 306.248L590.64 298.539L592.596 388.773C592.751 395.935 587.071 401.867 579.909 402.022L250.112 409.17C242.949 409.325 237.018 403.645 236.863 396.483L234.906 306.248Z" fill="white"/>
<path d="M249.829 410.254C242.22 410.254 235.95 404.15 235.784 396.506L233.805 305.191L591.7 297.435L593.679 388.749C593.76 392.502 592.376 396.061 589.78 398.772C587.183 401.483 583.687 403.021 579.935 403.102L250.137 410.25C250.035 410.253 249.931 410.254 249.829 410.254ZM236.013 307.306L237.945 396.46C238.086 402.927 243.392 408.092 249.829 408.092C249.917 408.092 250.003 408.092 250.091 408.09L579.888 400.942C583.063 400.873 586.021 399.572 588.218 397.278C590.414 394.984 591.586 391.972 591.518 388.797L589.585 299.643L236.013 307.306Z" fill="#25272C"/>
<path d="M301.405 341.375L401.661 339.203C406.109 339.106 409.794 342.634 409.89 347.082L410.291 365.556C410.387 370.004 406.859 373.688 402.411 373.784L302.155 375.957C297.707 376.054 294.022 372.526 293.926 368.078L293.525 349.604C293.429 345.156 296.957 341.471 301.405 341.375Z" fill="white"/>
<path d="M301.98 377.04C297.033 377.041 292.956 373.072 292.847 368.101L292.447 349.627C292.339 344.591 296.347 340.404 301.384 340.295L301.408 341.375L301.384 340.295L401.641 338.122C404.069 338.077 406.395 338.969 408.158 340.657C409.921 342.345 410.921 344.619 410.973 347.058L411.373 365.532C411.482 370.569 407.474 374.756 402.437 374.865L302.181 377.038C302.114 377.04 302.046 377.04 301.98 377.04ZM301.431 342.456C297.586 342.539 294.526 345.736 294.609 349.58L295.009 368.055C295.092 371.848 298.204 374.878 301.98 374.878C302.031 374.878 302.082 374.878 302.134 374.877L402.39 372.704C406.235 372.621 409.295 369.425 409.212 365.58L408.812 347.106C408.772 345.243 408.008 343.507 406.662 342.219C405.316 340.93 403.527 340.231 401.687 340.283L301.431 342.456Z" fill="#25272C"/>
<path d="M425.475 338.686L525.732 336.514C530.18 336.417 533.864 339.945 533.961 344.393L534.361 362.867C534.458 367.315 530.93 370.999 526.482 371.096L426.225 373.268C421.777 373.365 418.093 369.837 417.996 365.389L417.596 346.915C417.499 342.467 421.027 338.783 425.475 338.686Z" fill="#25272C"/>
<path d="M426.044 374.351C423.679 374.351 421.443 373.455 419.73 371.814C417.967 370.126 416.967 367.852 416.914 365.413L416.514 346.939C416.405 341.902 420.414 337.716 425.451 337.606L525.707 335.434C530.746 335.33 534.93 339.333 535.04 344.37L535.44 362.844C535.493 365.284 534.593 367.599 532.905 369.362C531.217 371.124 528.943 372.124 526.503 372.177L426.247 374.35C426.179 374.35 426.112 374.351 426.044 374.351ZM425.498 339.767C421.653 339.85 418.592 343.046 418.675 346.891L419.076 365.365C419.116 367.228 419.88 368.963 421.225 370.252C422.571 371.541 424.365 372.232 426.2 372.187L526.456 370.014C528.319 369.974 530.055 369.211 531.343 367.865C532.632 366.519 533.319 364.753 533.279 362.89L532.878 344.415C532.796 340.622 529.684 337.591 525.907 337.591C525.856 337.591 525.806 337.592 525.754 337.593L425.498 339.767Z" fill="#25272C"/>
<path d="M246.953 263.334L576.75 256.186C583.912 256.031 589.844 261.711 589.999 268.873L590.642 298.539L234.908 306.249L234.265 276.583C234.111 269.421 239.791 263.489 246.953 263.334Z" fill="white"/>
<path d="M233.849 307.353L233.183 276.607C233.016 268.86 239.181 262.421 246.928 262.253L246.951 263.334L246.928 262.253L576.725 255.106C584.482 254.958 590.91 261.103 591.078 268.85L591.745 299.596L233.849 307.353ZM577.033 257.264C576.946 257.264 576.859 257.265 576.772 257.267L246.974 264.414C240.42 264.556 235.203 270.005 235.345 276.559L235.964 305.145L589.536 297.482L588.917 268.897C588.777 262.429 583.47 257.264 577.033 257.264Z" fill="#25272C"/>
<path d="M260.074 292.194C255.84 292.194 252.351 288.798 252.26 284.546C252.214 282.458 252.984 280.477 254.429 278.969C255.873 277.461 257.818 276.605 259.907 276.56C264.211 276.463 267.798 279.897 267.892 284.207C267.986 288.516 264.555 292.099 260.245 292.192C260.188 292.194 260.13 292.194 260.074 292.194ZM260.078 278.721C260.036 278.721 259.995 278.721 259.954 278.722C258.443 278.755 257.035 279.373 255.99 280.465C254.946 281.555 254.388 282.988 254.421 284.499C254.489 287.617 257.076 290.121 260.198 290.031C263.317 289.963 265.798 287.372 265.731 284.253C265.663 281.178 263.14 278.721 260.078 278.721Z" fill="#05C46B"/>
<path d="M283.348 291.69C279.114 291.69 275.625 288.293 275.533 284.041C275.44 279.731 278.871 276.149 283.18 276.056C287.506 275.952 291.072 279.393 291.166 283.702C291.259 288.012 287.829 291.594 283.519 291.688C283.462 291.689 283.405 291.69 283.348 291.69ZM283.351 278.216C283.31 278.216 283.269 278.216 283.227 278.217C280.109 278.285 277.628 280.876 277.695 283.995C277.761 287.071 280.286 289.528 283.349 289.528C283.39 289.528 283.431 289.528 283.472 289.527C286.59 289.459 289.072 286.868 289.004 283.749C288.937 280.673 286.414 278.216 283.351 278.216Z" fill="#FFD32A"/>
<path d="M306.624 291.185C302.391 291.185 298.902 287.789 298.81 283.537C298.765 281.449 299.535 279.469 300.98 277.96C302.424 276.452 304.369 275.597 306.457 275.551C310.769 275.455 314.35 278.888 314.443 283.198C314.536 287.508 311.105 291.089 306.796 291.183C306.738 291.185 306.681 291.185 306.624 291.185ZM306.628 277.711C306.586 277.711 306.545 277.711 306.504 277.712C304.993 277.745 303.586 278.364 302.541 279.455C301.496 280.547 300.939 281.979 300.972 283.489C301.039 286.566 303.562 289.023 306.625 289.023C306.666 289.023 306.708 289.023 306.749 289.022C309.867 288.954 312.349 286.363 312.281 283.244C312.215 280.168 309.69 277.711 306.628 277.711Z" fill="#F53B57"/>
<path d="M416.35 42.8864L413.098 10.2027C412.562 4.81764 407.762 0.886441 402.377 1.42244L67.8096 34.7179C62.4246 35.2539 58.4934 40.0539 59.0294 45.439L62.2822 78.1227L65.7291 112.757C66.2651 118.142 71.0651 122.074 76.4502 121.538L411.017 88.2422C416.402 87.7062 420.333 82.9062 419.797 77.5211L416.35 42.8864Z" fill="white"/>
<path d="M75.471 122.667C69.9521 122.667 65.2108 118.47 64.6529 112.865L57.9532 45.5463C57.6652 42.6546 58.5206 39.8237 60.3628 37.5757C62.2038 35.3271 64.8108 33.9308 67.7025 33.6428L402.269 0.34739C408.238 -0.252077 413.579 4.12605 414.173 10.0962L420.872 77.4146C421.16 80.3063 420.305 83.1372 418.463 85.3852C416.622 87.6338 414.015 89.0301 411.123 89.3181L76.5564 122.614C76.1921 122.65 75.83 122.667 75.471 122.667ZM403.353 2.45512C403.065 2.45512 402.776 2.46953 402.483 2.49833L67.9164 35.7938C65.599 36.0247 63.5105 37.1437 62.0353 38.9453C60.5601 40.7469 59.8737 43.0151 60.1046 45.3324L66.8044 112.651C67.2806 117.434 71.5649 120.937 76.343 120.463L410.909 87.1671C413.227 86.9362 415.316 85.8172 416.791 84.0156C418.266 82.214 418.952 79.9458 418.721 77.6285L412.022 10.3101C411.575 5.81885 407.775 2.45512 403.353 2.45512Z" fill="#25272C"/>
<path d="M333.469 8.29492L335.62 8.08092L344.257 94.902L342.106 95.1159L333.469 8.29492Z" fill="#25272C"/>
<path d="M85.6824 61.104C89.4032 61.104 92.4194 58.0877 92.4194 54.3669C92.4194 50.6462 89.4032 47.6299 85.6824 47.6299C81.9616 47.6299 78.9453 50.6462 78.9453 54.3669C78.9453 58.0877 81.9616 61.104 85.6824 61.104Z" fill="#05C46B"/>
<path d="M85.663 62.1857C83.864 62.1857 82.135 61.5708 80.7243 60.4156C79.1088 59.0924 78.1051 57.2194 77.8982 55.1415C77.4715 50.8519 80.6139 47.0145 84.903 46.5879C89.1942 46.1596 93.0293 49.3036 93.4571 53.5932C93.8837 57.8828 90.7408 61.7201 86.4518 62.1468C86.1883 62.1729 85.9248 62.1857 85.663 62.1857ZM85.6816 48.7105C85.495 48.7105 85.3072 48.7196 85.1174 48.7383C82.0144 49.0471 79.7408 51.8236 80.0491 54.9271C80.1984 56.4306 80.9248 57.7852 82.0939 58.7425C83.2624 59.6999 84.7371 60.1441 86.2374 59.9953C89.3408 59.6865 91.6144 56.91 91.3062 53.8065C91.016 50.8929 88.5504 48.7105 85.6816 48.7105Z" fill="#05C46B"/>
<path d="M108.846 58.7984C112.567 58.7984 115.583 55.7821 115.583 52.0613C115.583 48.3405 112.567 45.3242 108.846 45.3242C105.126 45.3242 102.109 48.3405 102.109 52.0613C102.109 55.7821 105.126 58.7984 108.846 58.7984Z" fill="#FFD32A"/>
<path d="M108.839 59.8794C104.874 59.8794 101.467 56.8634 101.066 52.8351C100.639 48.5455 103.782 44.7082 108.071 44.2815C110.149 44.0746 112.183 44.689 113.799 46.0127C115.414 47.3359 116.418 49.209 116.625 51.2868C117.052 55.5764 113.909 59.4138 109.62 59.8404C109.358 59.8666 109.098 59.8794 108.839 59.8794ZM108.857 46.4047C108.667 46.4047 108.477 46.4143 108.286 46.433C105.183 46.7418 102.909 49.5183 103.218 52.6218C103.526 55.7252 106.301 57.9967 109.406 57.69C112.509 57.3812 114.783 54.6047 114.475 51.5012C114.325 49.9978 113.599 48.6431 112.43 47.6858C111.409 46.85 110.158 46.4047 108.857 46.4047Z" fill="#FFD32A"/>
<path d="M132.011 56.4927C135.731 56.4927 138.748 53.4764 138.748 49.7556C138.748 46.0348 135.731 43.0186 132.011 43.0186C128.29 43.0186 125.273 46.0348 125.273 49.7556C125.273 53.4764 128.29 56.4927 132.011 56.4927Z" fill="#F53B57"/>
<path d="M132.008 57.5744C128.042 57.5744 124.635 54.5584 124.234 50.5301C123.807 46.2405 126.95 42.4032 131.239 41.9765C133.317 41.769 135.351 42.384 136.967 43.7077C138.582 45.0309 139.586 46.904 139.793 48.9818C140 51.0597 139.385 53.0938 138.062 54.7093C136.739 56.3248 134.866 57.3285 132.788 57.5354C132.526 57.5616 132.266 57.5744 132.008 57.5744ZM132.024 44.0992C131.835 44.0992 131.644 44.1088 131.454 44.1274C128.35 44.4362 126.077 47.2128 126.385 50.3162C126.694 53.4192 129.464 55.6928 132.574 55.3845C134.077 55.2346 135.432 54.5088 136.389 53.3397C137.347 52.1712 137.791 50.6992 137.642 49.1957C137.493 47.6922 136.766 46.3376 135.597 45.3802C134.576 44.5445 133.326 44.0992 132.024 44.0992Z" fill="#F53B57"/>
<path d="M358.627 445.31L362.259 412.666C362.858 407.288 358.982 402.442 353.604 401.844L19.4459 364.667C14.0672 364.069 9.22192 367.944 8.62352 373.322L4.99152 405.966L1.14298 440.559C0.544583 445.937 4.41979 450.783 9.79845 451.381L343.956 488.559C349.335 489.157 354.18 485.282 354.779 479.903L358.627 445.31Z" fill="white"/>
<path d="M345.047 489.699C344.647 489.699 344.243 489.677 343.836 489.632L9.67867 452.454C6.79014 452.133 4.20028 450.706 2.38481 448.437C0.569878 446.167 -0.25306 443.326 0.0680069 440.438L7.54801 373.202C8.21148 367.24 13.5939 362.925 19.5645 363.592L353.722 400.769C356.61 401.091 359.2 402.517 361.016 404.787C362.831 407.057 363.654 409.897 363.332 412.785L359.701 445.429L358.626 445.31L359.701 445.429L355.852 480.022C355.234 485.577 350.512 489.699 345.047 489.699ZM18.3549 365.687C13.9757 365.687 10.1923 368.989 9.69734 373.441L2.21735 440.678C1.95975 442.992 2.61894 445.268 4.07281 447.087C5.52774 448.905 7.60294 450.049 9.91708 450.307L344.075 487.484C348.862 488.016 353.172 484.561 353.704 479.784L361.184 412.548C361.441 410.233 360.782 407.957 359.328 406.139C357.873 404.32 355.798 403.177 353.484 402.919L19.3261 365.742C18.9997 365.704 18.6755 365.687 18.3549 365.687Z" fill="#25272C"/>
<path d="M275.16 480.91L284.81 394.193L286.959 394.432L277.309 481.149L275.16 480.91Z" fill="#25272C"/>
<path d="M32.8269 394.346C36.5477 394.346 39.564 391.329 39.564 387.609C39.564 383.888 36.5477 380.872 32.8269 380.872C29.1061 380.872 26.0898 383.888 26.0898 387.609C26.0898 391.329 29.1061 394.346 32.8269 394.346Z" fill="#05C46B"/>
<path d="M32.8322 395.427C32.5442 395.427 32.2541 395.411 31.9613 395.379C27.6776 394.902 24.5794 391.029 25.0562 386.745C25.5336 382.459 29.4072 379.364 33.6909 379.839C37.9746 380.316 41.0728 384.189 40.596 388.473C40.1517 392.466 36.7586 395.427 32.8322 395.427ZM32.8221 381.953C29.981 381.953 27.5261 384.096 27.205 386.984C26.86 390.083 29.101 392.885 32.2008 393.231C35.2941 393.575 38.1016 391.334 38.4472 388.234C38.7922 385.135 36.5512 382.332 33.4514 381.987C33.2402 381.964 33.0301 381.953 32.8221 381.953Z" fill="#05C46B"/>
<path d="M55.9636 396.92C59.6844 396.92 62.7007 393.904 62.7007 390.183C62.7007 386.462 59.6844 383.446 55.9636 383.446C52.2429 383.446 49.2266 386.462 49.2266 390.183C49.2266 393.904 52.2429 396.92 55.9636 396.92Z" fill="#FFD32A"/>
<path d="M55.9734 398.001C55.6854 398.001 55.3953 397.985 55.1025 397.952C50.8182 397.476 47.7201 393.603 48.1969 389.318C48.6742 385.033 52.5489 381.936 56.8315 382.413C61.1158 382.889 64.2139 386.763 63.7371 391.047C63.2929 395.039 59.8998 398.001 55.9734 398.001ZM55.9627 384.526C53.1217 384.526 50.6667 386.669 50.3457 389.557C50.0006 392.657 52.2422 395.459 55.3419 395.804C58.4358 396.149 61.2427 393.908 61.5883 390.808C61.9339 387.708 59.6918 384.906 56.5921 384.561C56.3809 384.538 56.1707 384.526 55.9627 384.526Z" fill="#FFD32A"/>
<path d="M79.1042 399.495C82.825 399.495 85.8413 396.478 85.8413 392.758C85.8413 389.037 82.825 386.021 79.1042 386.021C75.3835 386.021 72.3672 389.037 72.3672 392.758C72.3672 396.478 75.3835 399.495 79.1042 399.495Z" fill="#F53B57"/>
<path d="M79.1062 400.575C78.8182 400.575 78.5281 400.559 78.2353 400.527C73.951 400.05 70.8529 396.177 71.3297 391.893C71.807 387.608 75.6817 384.512 79.9643 384.987C84.2481 385.464 87.3462 389.337 86.8699 393.621C86.4262 397.614 83.0331 400.575 79.1062 400.575ZM79.0961 387.101C76.255 387.101 73.8001 389.244 73.479 392.132C73.1339 395.231 75.3755 398.034 78.4753 398.379C81.5697 398.721 84.3766 396.482 84.7217 393.382C85.0667 390.283 82.8246 387.48 79.7254 387.135C79.5142 387.112 79.3036 387.101 79.0961 387.101Z" fill="#F53B57"/>
<path d="M520.767 545.361L588.853 541.991C594.258 541.723 598.423 537.125 598.156 531.72L596.434 496.956L594.81 464.152C594.543 458.746 589.944 454.581 584.539 454.849L516.453 458.22L520.767 545.361Z" fill="#25272C"/>
<path d="M519.741 546.495L515.32 457.194L584.486 453.77C587.394 453.627 590.173 454.622 592.327 456.572C594.481 458.523 595.746 461.195 595.89 464.098L599.235 531.666C599.531 537.658 594.897 542.774 588.906 543.071L519.741 546.495ZM517.586 459.245L521.793 544.228L588.799 540.912C593.6 540.674 597.313 536.575 597.076 531.773L593.732 464.206C593.616 461.88 592.602 459.738 590.876 458.175C589.151 456.611 586.916 455.814 584.593 455.929L517.586 459.245Z" fill="#25272C"/>
<path d="M516.451 458.219L248.729 471.472C243.323 471.74 239.159 476.338 239.426 481.744L241.05 514.548L242.771 549.311C243.039 554.717 247.637 558.882 253.043 558.614L520.765 545.361L516.451 458.219Z" fill="white"/>
<path d="M252.548 559.707C249.845 559.707 247.274 558.718 245.257 556.891C243.103 554.94 241.838 552.268 241.694 549.365L238.349 481.797C238.052 475.805 242.686 470.689 248.677 470.393L517.48 457.086L521.9 546.387L520.821 546.441L253.099 559.694C252.914 559.703 252.731 559.707 252.548 559.707ZM515.428 459.353L248.785 472.552C243.983 472.79 240.271 476.889 240.508 481.69L243.853 549.258C243.968 551.584 244.981 553.725 246.708 555.289C248.434 556.852 250.669 557.649 252.991 557.534L519.634 544.335L515.428 459.353Z" fill="#25272C"/>
<path d="M265.595 499.803C261.46 499.803 257.998 496.547 257.791 492.372C257.578 488.066 260.908 484.39 265.213 484.177C267.302 484.073 269.3 484.789 270.847 486.191C272.395 487.593 273.304 489.513 273.408 491.599C273.621 495.905 270.291 499.581 265.986 499.794C265.855 499.8 265.725 499.803 265.595 499.803ZM265.606 486.329C265.511 486.329 265.416 486.331 265.321 486.336C262.205 486.49 259.797 489.15 259.951 492.265C260.106 495.38 262.761 497.794 265.879 497.634C267.389 497.56 268.778 496.902 269.793 495.782C270.806 494.662 271.324 493.215 271.249 491.705C271.174 490.196 270.517 488.807 269.397 487.793C268.348 486.843 267.011 486.329 265.606 486.329Z" fill="#05C46B"/>
<path d="M288.84 498.652C286.898 498.652 285.051 497.942 283.602 496.629C282.054 495.227 281.145 493.307 281.041 491.221C280.938 489.135 281.652 487.134 283.054 485.587C284.456 484.039 286.377 483.13 288.462 483.026C290.552 482.922 292.549 483.638 294.097 485.04C295.645 486.442 296.554 488.363 296.658 490.448C296.87 494.754 293.541 498.43 289.236 498.643C289.103 498.649 288.971 498.652 288.84 498.652ZM288.856 485.178C288.761 485.178 288.666 485.18 288.57 485.184C287.061 485.259 285.672 485.917 284.657 487.037C283.643 488.157 283.126 489.604 283.201 491.113C283.276 492.622 283.933 494.012 285.053 495.026C286.173 496.04 287.621 496.56 289.13 496.482C290.639 496.407 292.028 495.75 293.043 494.63C294.057 493.51 294.574 492.062 294.499 490.553C294.425 489.044 293.767 487.654 292.647 486.64C291.597 485.692 290.26 485.178 288.856 485.178Z" fill="#FFD32A"/>
<path d="M312.094 497.501C310.152 497.501 308.305 496.791 306.856 495.477C305.308 494.076 304.398 492.155 304.295 490.069C304.192 487.984 304.907 485.983 306.308 484.435C307.71 482.888 309.63 481.978 311.716 481.875C313.794 481.773 315.803 482.487 317.351 483.889C318.899 485.29 319.808 487.211 319.912 489.297C320.015 491.383 319.3 493.384 317.898 494.931C316.497 496.479 314.576 497.388 312.49 497.491C312.358 497.498 312.226 497.501 312.094 497.501ZM312.11 484.027C312.014 484.027 311.92 484.029 311.824 484.034C310.315 484.109 308.925 484.767 307.911 485.887C306.897 487.007 306.38 488.454 306.454 489.963C306.529 491.472 307.187 492.862 308.307 493.876C309.427 494.89 310.877 495.41 312.384 495.332C313.892 495.258 315.282 494.6 316.296 493.48C317.31 492.36 317.827 490.913 317.753 489.403C317.678 487.895 317.02 486.505 315.9 485.491C314.851 484.541 313.515 484.027 312.11 484.027Z" fill="#F53B57"/>
<path d="M475.18 57.6265V85.7145H476.716V57.6265C476.465 57.6579 476.209 57.6766 475.948 57.6766C475.687 57.6766 475.431 57.6585 475.18 57.6265Z" fill="#FFD32A"/>
<path d="M476.716 45.5397V17.4517H475.18V45.5397C475.431 45.5082 475.687 45.4895 475.948 45.4895C476.209 45.4895 476.464 45.5077 476.716 45.5397Z" fill="#FFD32A"/>
<path d="M481.992 52.3515H510.08V50.8149H481.992C482.024 51.0667 482.042 51.3227 482.042 51.5829C482.042 51.8432 482.024 52.0997 481.992 52.3515Z" fill="#FFD32A"/>
<path d="M469.904 50.8149H441.816V52.3515H469.904C469.873 52.0997 469.854 51.8437 469.854 51.5835C469.854 51.3232 469.872 51.0667 469.904 50.8149Z" fill="#FFD32A"/>
<path d="M472.217 46.7666L452.356 26.9053L451.27 27.9917L471.131 47.853C471.446 47.4471 471.811 47.0818 472.217 46.7666Z" fill="#FFD32A"/>
<path d="M479.68 56.3994L499.541 76.2607L500.627 75.1743L480.766 55.313C480.451 55.7194 480.086 56.0847 479.68 56.3994Z" fill="#FFD32A"/>
<path d="M480.766 47.853L500.627 27.9917L499.541 26.9053L479.68 46.7666C480.086 47.0818 480.451 47.4471 480.766 47.853Z" fill="#FFD32A"/>
<path d="M471.131 55.3135L451.27 75.1748L452.356 76.2612L472.217 56.3999C471.811 56.0847 471.446 55.7193 471.131 55.3135Z" fill="#FFD32A"/>
<path d="M513.855 198.281L581.474 206.929C586.842 207.615 591.75 203.82 592.437 198.452L596.852 163.927L601.019 131.347C601.705 125.979 597.91 121.071 592.542 120.385L524.923 111.737L513.855 198.281Z" fill="#25272C"/>
<path d="M582.727 208.089C582.269 208.089 581.806 208.06 581.34 208L512.648 199.216L523.991 110.527L592.682 119.312C598.632 120.073 602.855 125.534 602.094 131.484L593.512 198.589C592.81 204.073 588.117 208.089 582.727 208.089ZM515.067 197.345L581.613 205.856C586.387 206.467 590.758 203.083 591.367 198.315L599.949 131.21C600.559 126.442 597.176 122.067 592.407 121.456L525.861 112.946L515.067 197.345Z" fill="#25272C"/>
<path d="M524.924 111.737L259.039 77.7335C253.671 77.0471 248.763 80.8423 248.076 86.2103L243.91 118.79L239.494 153.315C238.808 158.683 242.603 163.591 247.971 164.278L513.856 198.281L524.924 111.737Z" fill="white"/>
<path d="M514.79 199.49L513.718 199.353L247.834 165.349C244.952 164.981 242.385 163.511 240.607 161.213C238.829 158.914 238.053 156.06 238.421 153.178L247.004 86.073C247.372 83.1903 248.842 80.6239 251.141 78.8463C253.441 77.0687 256.294 76.2917 259.176 76.6613L526.133 110.802L514.79 199.49ZM257.778 78.7333C255.859 78.7333 254.006 79.3631 252.463 80.5557C250.621 81.9802 249.444 84.0367 249.148 86.3461L240.566 153.451C240.271 155.76 240.892 158.047 242.316 159.889C243.741 161.731 245.797 162.909 248.107 163.204L512.92 197.07L523.713 112.671L258.901 78.8042C258.526 78.7573 258.15 78.7333 257.778 78.7333Z" fill="#25272C"/>
<path d="M272.057 108.711C271.723 108.711 271.387 108.69 271.05 108.647C266.774 108.1 263.74 104.176 264.286 99.9005C264.551 97.829 265.607 95.9847 267.258 94.7074C268.911 93.4295 270.962 92.8722 273.032 93.1373C275.104 93.4023 276.949 94.4578 278.225 96.1095C279.503 97.7618 280.06 99.8119 279.796 101.883C279.53 103.955 278.474 105.799 276.823 107.076C275.44 108.146 273.777 108.711 272.057 108.711ZM272.03 95.2349C270.785 95.2349 269.582 95.6434 268.582 96.4173C267.386 97.341 266.623 98.6754 266.431 100.174C266.036 103.267 268.231 106.106 271.324 106.502C274.413 106.896 277.256 104.702 277.652 101.609C277.843 100.11 277.44 98.6269 276.516 97.4317C275.592 96.2365 274.257 95.4727 272.759 95.2813C272.515 95.2503 272.271 95.2349 272.03 95.2349Z" fill="#05C46B"/>
<path d="M295.151 111.665C294.817 111.665 294.48 111.643 294.143 111.6C292.072 111.335 290.228 110.28 288.951 108.628C287.673 106.976 287.116 104.926 287.381 102.854C287.927 98.5783 291.854 95.5426 296.127 96.0908C300.403 96.6375 303.437 100.561 302.891 104.837C302.626 106.908 301.57 108.753 299.918 110.03C298.535 111.099 296.872 111.665 295.151 111.665ZM295.132 98.1884C292.33 98.1884 289.89 100.276 289.525 103.128C289.13 106.222 291.324 109.06 294.418 109.456C295.914 109.648 297.4 109.244 298.595 108.32C299.79 107.396 300.554 106.062 300.746 104.563C301.141 101.47 298.946 98.6306 295.853 98.2348C295.611 98.2039 295.37 98.1884 295.132 98.1884Z" fill="#FFD32A"/>
<path d="M318.231 114.617C317.901 114.617 317.569 114.596 317.233 114.553C315.162 114.288 313.318 113.233 312.04 111.581C310.763 109.929 310.206 107.878 310.471 105.806C311.018 101.531 314.943 98.4939 319.217 99.0438C323.493 99.5905 326.527 103.514 325.981 107.79C325.476 111.731 322.103 114.617 318.231 114.617ZM318.221 101.142C315.419 101.142 312.98 103.23 312.615 106.081C312.423 107.58 312.826 109.063 313.75 110.258C314.674 111.453 316.008 112.217 317.507 112.409C320.6 112.804 323.44 110.61 323.835 107.516C324.231 104.422 322.036 101.584 318.942 101.188C318.701 101.157 318.459 101.142 318.221 101.142Z" fill="#F53B57"/>
<path d="M186.82 506.534C199.212 506.534 209.257 496.489 209.257 484.097C209.257 471.705 199.212 461.66 186.82 461.66C174.428 461.66 164.383 471.705 164.383 484.097C164.383 496.489 174.428 506.534 186.82 506.534Z" fill="white"/>
<path d="M186.823 507.615C173.855 507.615 163.305 497.065 163.305 484.097C163.305 471.129 173.855 460.579 186.823 460.579C199.791 460.579 210.34 471.129 210.34 484.097C210.34 497.065 199.791 507.615 186.823 507.615ZM186.823 462.741C175.047 462.741 165.466 472.321 165.466 484.097C165.466 495.872 175.047 505.453 186.823 505.453C198.598 505.453 208.179 495.873 208.179 484.097C208.179 472.321 198.598 462.741 186.823 462.741Z" fill="#25272C"/>
<path d="M198.347 504.147L196.221 503.756C196.229 503.714 196.974 499.523 196.102 495.126C194.98 489.471 191.791 486.117 186.625 485.16L187.019 483.034C201.567 485.731 198.381 503.963 198.347 504.147Z" fill="#25272C"/>
<path d="M208.546 485.786C208.513 485.759 205.257 483.018 201.013 481.575C195.555 479.719 191.056 480.804 187.644 484.799L186 483.394C195.61 472.145 209.806 484.019 209.947 484.141L208.546 485.786Z" fill="#25272C"/>
<path d="M185.805 484.458C180.866 470.511 198.249 464.154 198.425 464.091L199.149 466.128C199.109 466.142 195.107 467.592 191.735 470.546C187.398 474.346 186.089 478.784 187.842 483.736L185.805 484.458Z" fill="#25272C"/>
<path d="M186.623 485.159C172.075 482.462 175.261 464.231 175.295 464.047L177.421 464.438C177.413 464.48 176.668 468.671 177.54 473.067C178.662 478.723 181.851 482.076 187.017 483.034L186.623 485.159Z" fill="#25272C"/>
<path d="M177.591 489.638C170.369 489.638 163.792 484.135 163.695 484.053L165.097 482.407C165.129 482.434 168.385 485.175 172.629 486.618C178.089 488.473 182.587 487.39 185.999 483.394L187.643 484.798C184.56 488.408 181.003 489.638 177.591 489.638Z" fill="#25272C"/>
<path d="M175.22 504.102L174.496 502.065C174.536 502.051 178.538 500.601 181.909 497.648C186.247 493.848 187.556 489.41 185.803 484.457L187.84 483.736C192.779 497.683 175.396 504.04 175.22 504.102Z" fill="#25272C"/>
</svg>
