<svg width="40" height="40" viewBox="0 0 40 40" fill="none" xmlns="http://www.w3.org/2000/svg">
<path d="M28.7335 37.9167H11.2668C6.60013 37.9167 3.63346 35.1333 3.36679 30.4833L2.50013 16.7333C2.36679 14.65 3.08346 12.65 4.51679 11.1333C5.93346 9.61668 7.93346 8.75001 10.0001 8.75001C10.5335 8.75001 11.0501 8.43334 11.3001 7.93334L12.5001 5.55001C13.4835 3.60001 15.9501 2.08334 18.1001 2.08334H21.9168C24.0668 2.08334 26.5168 3.60001 27.5001 5.53334L28.7001 7.96668C28.9501 8.43334 29.4501 8.75001 30.0001 8.75001C32.0668 8.75001 34.0668 9.61668 35.4835 11.1333C36.9168 12.6667 37.6335 14.65 37.5001 16.7333L36.6335 30.5C36.3335 35.2167 33.4501 37.9167 28.7335 37.9167ZM18.1001 4.58334C16.8668 4.58334 15.3001 5.55001 14.7335 6.66668L13.5335 9.06668C12.8335 10.4167 11.4835 11.25 10.0001 11.25C8.60013 11.25 7.30013 11.8167 6.33346 12.8333C5.38346 13.85 4.90013 15.1833 5.00013 16.5667L5.86679 30.3333C6.06679 33.7 7.88346 35.4167 11.2668 35.4167H28.7335C32.1001 35.4167 33.9168 33.7 34.1335 30.3333L35.0001 16.5667C35.0835 15.1833 34.6168 13.85 33.6668 12.8333C32.7001 11.8167 31.4001 11.25 30.0001 11.25C28.5168 11.25 27.1668 10.4167 26.4668 9.10001L25.2501 6.66668C24.7001 5.56668 23.1335 4.60001 21.9001 4.60001H18.1001V4.58334Z" fill="#88888C"/>
<path d="M22.5 14.5833H17.5C16.8167 14.5833 16.25 14.0167 16.25 13.3333C16.25 12.65 16.8167 12.0833 17.5 12.0833H22.5C23.1833 12.0833 23.75 12.65 23.75 13.3333C23.75 14.0167 23.1833 14.5833 22.5 14.5833Z" fill="#88888C"/>
<path d="M19.9987 31.25C16.3154 31.25 13.332 28.2667 13.332 24.5833C13.332 20.9 16.3154 17.9167 19.9987 17.9167C23.682 17.9167 26.6654 20.9 26.6654 24.5833C26.6654 28.2667 23.682 31.25 19.9987 31.25ZM19.9987 20.4167C17.6987 20.4167 15.832 22.2833 15.832 24.5833C15.832 26.8833 17.6987 28.75 19.9987 28.75C22.2987 28.75 24.1654 26.8833 24.1654 24.5833C24.1654 22.2833 22.2987 20.4167 19.9987 20.4167Z" fill="#88888C"/>
</svg>
