<svg width="40" height="40" viewBox="0 0 40 40" fill="none" xmlns="http://www.w3.org/2000/svg">
<path d="M36.6654 37.9167H3.33203C2.6487 37.9167 2.08203 37.35 2.08203 36.6667C2.08203 35.9833 2.6487 35.4167 3.33203 35.4167H36.6654C37.3487 35.4167 37.9154 35.9833 37.9154 36.6667C37.9154 37.35 37.3487 37.9167 36.6654 37.9167Z" fill="#88888C"/>
<path d="M24.1667 10.3832C22.6 10.3832 21.0333 10.0832 19.5333 9.48325C19.0667 9.29991 18.75 8.83323 18.75 8.31656V3.31656C18.75 2.89989 18.95 2.51657 19.3 2.28323C19.65 2.0499 20.0833 1.99987 20.4667 2.14987C22.85 3.09987 25.4833 3.09987 27.8667 2.14987C28.25 1.99987 28.6833 2.0499 29.0333 2.28323C29.3833 2.51657 29.5833 2.89989 29.5833 3.31656V8.31656C29.5833 8.83323 29.2667 9.28325 28.8 9.48325C27.3 10.0832 25.7333 10.3832 24.1667 10.3832ZM21.25 7.44986C23.15 8.03319 25.1833 8.03319 27.0833 7.44986V5.03327C25.1667 5.49994 23.1667 5.49994 21.25 5.03327V7.44986Z" fill="#88888C"/>
<path d="M20 14.5833C19.3167 14.5833 18.75 14.0167 18.75 13.3333V8.33334C18.75 7.65001 19.3167 7.08334 20 7.08334C20.6833 7.08334 21.25 7.65001 21.25 8.33334V13.3333C21.25 14.0167 20.6833 14.5833 20 14.5833Z" fill="#88888C"/>
<path d="M33.3346 37.9167H6.66797C5.98464 37.9167 5.41797 37.35 5.41797 36.6667V18.3333C5.41797 14.3 7.63464 12.0833 11.668 12.0833H28.3346C32.368 12.0833 34.5846 14.3 34.5846 18.3333V36.6667C34.5846 37.35 34.018 37.9167 33.3346 37.9167ZM7.91797 35.4167H32.0846V18.3333C32.0846 15.7 30.968 14.5833 28.3346 14.5833H11.668C9.03464 14.5833 7.91797 15.7 7.91797 18.3333V35.4167Z" fill="#88888C"/>
<path d="M32.3661 21.25H7.63281C6.94948 21.25 6.38281 20.6833 6.38281 20C6.38281 19.3167 6.94948 18.75 7.63281 18.75H32.3661C33.0495 18.75 33.6161 19.3167 33.6161 20C33.6161 20.6833 33.0495 21.25 32.3661 21.25Z" fill="#88888C"/>
<path d="M14.5664 20H12.0664V36.6667H14.5664V20Z" fill="#88888C"/>
<path d="M21.2344 20H18.7344V36.6667H21.2344V20Z" fill="#88888C"/>
<path d="M27.8984 20H25.3984V36.6667H27.8984V20Z" fill="#88888C"/>
</svg>
