<svg width="40" height="40" viewBox="0 0 40 40" fill="none" xmlns="http://www.w3.org/2000/svg">
<path d="M22.3336 29.0333H18.1503C15.4169 29.0333 13.2003 26.7333 13.2003 23.9C13.2003 23.2167 13.7669 22.65 14.4503 22.65C15.1336 22.65 15.7003 23.2167 15.7003 23.9C15.7003 25.35 16.8003 26.5333 18.1503 26.5333H22.3336C23.4169 26.5333 24.3169 25.5667 24.3169 24.4C24.3169 22.95 23.8003 22.6667 22.9503 22.3667L16.2336 20C14.9336 19.55 13.1836 18.5833 13.1836 15.6C13.1836 13.0333 15.2003 10.9667 17.6669 10.9667H21.8503C24.5836 10.9667 26.8003 13.2667 26.8003 16.1C26.8003 16.7833 26.2336 17.35 25.5503 17.35C24.8669 17.35 24.3003 16.7833 24.3003 16.1C24.3003 14.65 23.2003 13.4667 21.8503 13.4667H17.6669C16.5836 13.4667 15.6836 14.4333 15.6836 15.6C15.6836 17.05 16.2003 17.3333 17.0503 17.6333L23.7669 20C25.0669 20.45 26.8169 21.4167 26.8169 24.4C26.8003 26.95 24.8003 29.0333 22.3336 29.0333Z" fill="#88888C"/>
<path d="M20 31.25C19.3167 31.25 18.75 30.6833 18.75 30V10C18.75 9.31667 19.3167 8.75 20 8.75C20.6833 8.75 21.25 9.31667 21.25 10V30C21.25 30.6833 20.6833 31.25 20 31.25Z" fill="#88888C"/>
<path d="M19.9987 37.9167C10.1154 37.9167 2.08203 29.8833 2.08203 20C2.08203 10.1167 10.1154 2.08333 19.9987 2.08333C29.882 2.08333 37.9154 10.1167 37.9154 20C37.9154 29.8833 29.882 37.9167 19.9987 37.9167ZM19.9987 4.58333C11.4987 4.58333 4.58203 11.5 4.58203 20C4.58203 28.5 11.4987 35.4167 19.9987 35.4167C28.4987 35.4167 35.4154 28.5 35.4154 20C35.4154 11.5 28.4987 4.58333 19.9987 4.58333Z" fill="#88888C"/>
</svg>
