<svg width="40" height="40" viewBox="0 0 40 40" fill="none" xmlns="http://www.w3.org/2000/svg">
<path fill-rule="evenodd" clip-rule="evenodd" d="M26.4655 34.8667C26.5155 35.1333 26.3654 35.4166 26.1154 35.5166C24.2321 36.2666 22.1655 36.6666 20.0322 36.6666C16.3488 36.6666 12.9488 35.4833 10.1988 33.45C9.96547 33.2833 9.89886 32.95 10.0489 32.7C10.9655 31.0666 14.5488 25.8167 22.4654 22.8833C22.7654 22.7667 23.0988 22.9166 23.1988 23.2166C25.1821 28.5333 26.1155 33.0333 26.4655 34.8667Z" fill="#32A693"/>
<path fill-rule="evenodd" clip-rule="evenodd" d="M36.3655 23.15C35.5988 27.25 33.2988 30.8167 30.0821 33.25C29.7321 33.5167 29.2321 33.3167 29.1488 32.9C28.7988 31.1 27.9487 27.2167 26.3154 22.6C26.1987 22.25 26.4321 21.8667 26.7988 21.8167C30.9488 21.3167 34.5821 22.1167 35.9488 22.4833C36.2321 22.5833 36.4155 22.8667 36.3655 23.15Z" fill="#32A693"/>
<path fill-rule="evenodd" clip-rule="evenodd" d="M35.9831 19.7C34.2831 19.4 29.9497 18.7666 25.5164 19.25C25.2497 19.2833 25.0164 19.1333 24.8997 18.8833C24.833 18.7333 24.7831 18.5833 24.7164 18.4333C24.4497 17.8166 24.1664 17.1833 23.8831 16.5666C23.7331 16.2666 23.8831 15.9 24.1831 15.7666C28.8497 13.75 31.4497 11.15 32.4663 9.98329C32.7163 9.69996 33.1498 9.71666 33.3831 10.0167C35.2998 12.5667 36.483 15.6833 36.6664 19.05C36.683 19.4666 36.3498 19.7667 35.9831 19.7Z" fill="#32A693"/>
<path fill-rule="evenodd" clip-rule="evenodd" d="M30.7333 7.98334C29.8666 9.03334 27.4333 11.5333 22.8166 13.3666C22.5499 13.4833 22.2333 13.3666 22.0833 13.1C19.9499 9.2333 17.6832 5.98331 16.6332 4.51664C16.3832 4.16664 16.5833 3.66666 16.9999 3.6C17.9666 3.43333 18.9833 3.35001 20.0166 3.35001C24.0499 3.35001 27.7666 4.78332 30.65 7.18332C30.9 7.36665 30.9333 7.73334 30.7333 7.98334Z" fill="#32A693"/>
<path fill-rule="evenodd" clip-rule="evenodd" d="M18.3679 14.7333C12.0513 16.3167 6.46785 16.5333 4.43451 16.5667C4.05118 16.5667 3.7679 16.2 3.8679 15.8333C5.0679 11.1667 8.26788 7.26668 12.4845 5.11668C12.7345 4.98335 13.0512 5.06665 13.2179 5.29999C14.0845 6.49999 16.4345 9.88335 18.7345 13.8667C18.9179 14.2 18.7513 14.6333 18.3679 14.7333Z" fill="#32A693"/>
<path fill-rule="evenodd" clip-rule="evenodd" d="M21.5349 19.3333C21.6849 19.65 21.5016 20.0333 21.1682 20.15C13.7849 22.5333 9.36823 28.45 8.03489 30.4833C7.81823 30.8167 7.35156 30.8333 7.10156 30.5333C4.76823 27.6667 3.35156 24.3833 3.35156 20.4V20.1C3.35156 19.7666 3.6182 19.5 3.95154 19.5166C6.05154 19.6 12.9016 19.3166 20.0182 17.2666C20.2849 17.1833 20.5849 17.3167 20.7015 17.5667C20.9849 18.15 21.2682 18.7333 21.5349 19.3333Z" fill="#32A693"/>
</svg>
