<svg width="677" height="380" viewBox="0 0 677 380" fill="none" xmlns="http://www.w3.org/2000/svg">
<path d="M432.983 71.26C446.097 71.26 456.728 60.6291 456.728 47.5152C456.728 34.4013 446.097 23.7704 432.983 23.7704C419.869 23.7704 409.238 34.4013 409.238 47.5152C409.238 60.6291 419.869 71.26 432.983 71.26Z" fill="#3259A6"/>
<path d="M432.984 95.055C432.675 95.055 432.385 94.9003 432.214 94.642C425.197 84.0864 412.636 78.8829 400.209 81.3825C400.181 81.3886 400.152 81.3928 400.124 81.3958C399.824 81.4231 399.524 81.311 399.326 81.0823C399.128 80.8549 399.051 80.5451 399.124 80.2522C401.617 67.8634 396.412 55.3012 385.856 48.2846C385.599 48.1136 385.443 47.8243 385.443 47.5145C385.443 47.2046 385.598 46.9159 385.856 46.7443C396.412 39.7283 401.617 27.1661 399.116 14.7404C399.055 14.4335 399.152 14.1139 399.375 13.8944C399.599 13.6761 399.918 13.5803 400.222 13.6494C412.635 16.1484 425.197 10.9431 432.214 0.387489C432.556 -0.129163 433.411 -0.129163 433.753 0.387489C440.769 10.9425 453.33 16.1454 465.757 13.647C465.787 13.6404 465.817 13.6361 465.848 13.6337C466.15 13.5991 466.446 13.7216 466.642 13.949C466.839 14.1764 466.916 14.4857 466.843 14.7773C464.351 27.1661 469.555 39.7283 480.111 46.7449C480.369 46.916 480.524 47.2052 480.524 47.515C480.524 47.8249 480.369 48.1136 480.111 48.2852C469.555 55.3012 464.351 67.8634 466.851 80.2891C466.913 80.596 466.816 80.9156 466.592 81.1351C466.369 81.354 466.05 81.4492 465.745 81.3801C453.332 78.8805 440.77 84.0864 433.753 94.642C433.582 94.9003 433.293 95.055 432.984 95.055ZM406.405 78.9145C416.84 78.9145 426.726 83.8712 432.983 92.5099C440.281 82.4358 452.516 77.3663 464.799 79.3316C462.836 67.0442 467.904 54.8119 477.978 47.5157C467.903 40.2183 462.835 27.9835 464.799 15.6997C452.516 17.6644 440.281 12.5967 432.984 2.5214C425.686 12.5955 413.45 17.6644 401.168 15.6997C403.131 27.9872 398.063 40.2195 387.99 47.5157C398.064 54.8131 403.132 67.0478 401.168 79.3316C402.919 79.0509 404.67 78.9145 406.405 78.9145Z" fill="#3259A6"/>
<path d="M652.497 276.725C659.091 276.725 664.436 271.38 664.436 264.786C664.436 258.193 659.091 252.848 652.497 252.848C645.904 252.848 640.559 258.193 640.559 264.786C640.559 271.38 645.904 276.725 652.497 276.725Z" fill="#3259A6"/>
<path d="M652.853 289.213C652.696 289.213 652.549 289.134 652.462 289.003C648.907 283.654 642.542 281.017 636.244 282.284C636.23 282.287 636.215 282.289 636.201 282.291C636.049 282.305 635.897 282.248 635.797 282.132C635.696 282.017 635.657 281.86 635.694 281.711C636.957 275.433 634.32 269.068 628.971 265.512C628.84 265.425 628.762 265.279 628.762 265.122C628.762 264.965 628.84 264.818 628.971 264.731C634.32 261.176 636.957 254.81 635.69 248.514C635.659 248.358 635.708 248.196 635.821 248.085C635.935 247.974 636.097 247.926 636.251 247.961C642.541 249.227 648.907 246.589 652.462 241.24C652.636 240.978 653.069 240.978 653.243 241.24C656.798 246.589 663.163 249.225 669.46 247.959C669.475 247.956 669.491 247.954 669.506 247.953C669.66 247.935 669.809 247.997 669.909 248.112C670.009 248.228 670.047 248.384 670.01 248.532C668.748 254.81 671.385 261.176 676.734 264.732C676.865 264.818 676.943 264.965 676.943 265.122C676.943 265.279 676.865 265.425 676.734 265.512C671.385 269.067 668.748 275.433 670.014 281.73C670.046 281.885 669.997 282.047 669.884 282.159C669.77 282.27 669.609 282.318 669.454 282.283C663.164 281.016 656.798 283.654 653.243 289.003C653.156 289.134 653.009 289.213 652.853 289.213ZM639.384 281.033C644.672 281.033 649.682 283.545 652.852 287.923C656.55 282.818 662.75 280.249 668.975 281.245C667.98 275.018 670.548 268.82 675.653 265.122C670.548 261.424 667.98 255.224 668.975 249C662.75 249.995 656.55 247.427 652.853 242.322C649.155 247.427 642.954 249.995 636.73 249C637.725 255.226 635.157 261.425 630.052 265.122C635.157 268.82 637.725 275.02 636.73 281.245C637.618 281.103 638.505 281.033 639.384 281.033Z" fill="#3259A6"/>
<path d="M464.439 150.31H651.831V267.041H464.439V150.31Z" fill="white"/>
<path d="M652.637 267.848H463.631V149.503H652.637V267.848ZM465.246 266.233H651.022V151.118H465.246V266.233Z" fill="#25272C"/>
<path d="M558.133 229.213L463.922 150.932L464.954 149.689L558.133 227.113L651.313 149.689L652.345 150.932L558.133 229.213Z" fill="#25272C"/>
<path d="M577.812 212.082L578.787 210.794L652.334 266.416L651.36 267.704L577.812 212.082Z" fill="#25272C"/>
<path d="M463.945 266.379L537.483 210.748L538.458 212.036L464.92 267.667L463.945 266.379Z" fill="#25272C"/>
<path d="M355.67 291.442H480.649V369.295H355.67V291.442Z" fill="white"/>
<path d="M481.458 370.102H354.863V290.635H481.458V370.102ZM356.479 368.487H479.843V292.25H356.479V368.487Z" fill="#25272C"/>
<path d="M418.16 344.415L355.154 292.063L356.186 290.821L418.16 342.315L480.133 290.821L481.166 292.063L418.16 344.415Z" fill="#25272C"/>
<path d="M431.121 332.863L432.095 331.575L481.147 368.671L480.173 369.959L431.121 332.863Z" fill="#25272C"/>
<path d="M355.182 368.63L404.227 331.527L405.201 332.815L356.156 369.918L355.182 368.63Z" fill="#25272C"/>
<path d="M310.102 48.0564H435.08V125.909H310.102V48.0564Z" fill="white"/>
<path d="M435.889 126.717H309.295V47.2492H435.889V126.717ZM310.91 125.102H434.274V48.8642H310.91V125.102Z" fill="#25272C"/>
<path d="M372.592 101.03L309.586 48.6778L310.618 47.4352L372.592 98.9296L434.565 47.4352L435.597 48.6778L372.592 101.03Z" fill="#25272C"/>
<path d="M385.555 89.47L386.529 88.1818L435.58 125.278L434.606 126.566L385.555 89.47Z" fill="#25272C"/>
<path d="M309.609 125.253L358.655 88.1507L359.629 89.4387L310.584 126.541L309.609 125.253Z" fill="#25272C"/>
<path d="M622.072 107.362L626.488 118.838L637.964 123.254L626.488 127.67L622.072 139.146L617.651 127.675L606.18 123.254L617.656 118.838L622.072 107.362Z" fill="#25272C"/>
<path d="M505.355 275.232L509.11 284.991L518.869 288.747L509.11 292.502L505.355 302.261L501.595 292.506L491.84 288.747L501.599 284.991L505.355 275.232Z" fill="#25272C"/>
<path d="M334.736 358.703L337.679 366.352L345.328 369.295L337.679 372.238L334.736 379.887L331.79 372.241L324.145 369.295L331.793 366.352L334.736 358.703Z" fill="#25272C"/>
<path d="M425.124 133.423L428.146 141.279L436.002 144.301L428.146 147.324L425.124 155.179L422.098 147.327L414.246 144.301L422.101 141.279L425.124 133.423Z" fill="#25272C"/>
<path d="M316.927 25.0138L319.079 30.6069L324.672 32.7591L319.079 34.9112L316.927 40.5043L314.773 34.9133L309.182 32.7591L314.775 30.6069L316.927 25.0138Z" fill="#25272C"/>
<path d="M289.559 187.132L291.711 192.725L297.304 194.877L291.711 197.029L289.559 202.623L287.405 197.032L281.814 194.877L287.407 192.725L289.559 187.132Z" fill="#25272C"/>
<path d="M184.176 262.833L186.328 268.426L191.922 270.578L186.328 272.73L184.176 278.323L182.022 272.733L176.432 270.578L182.024 268.426L184.176 262.833Z" fill="#25272C"/>
<path d="M113.845 131.401L115.997 136.994L121.59 139.146L115.997 141.298L113.845 146.891L111.691 141.301L106.1 139.146L111.693 136.994L113.845 131.401Z" fill="#25272C"/>
<path d="M0 250.4H8.69975V252.015H0V250.4Z" fill="#25272C"/>
<path d="M37.1465 250.4H67.825V252.015H37.1465V250.4Z" fill="#25272C"/>
<path d="M87.3477 250.4H450.163V252.015H87.3477V250.4Z" fill="#25272C"/>
<path d="M56.834 165.337H67.8257V166.952H56.834V165.337Z" fill="#25272C"/>
<path d="M113.846 165.337H167.736V166.952H113.846V165.337Z" fill="#25272C"/>
<path d="M196.334 165.337H450.162V166.952H196.334V165.337Z" fill="#25272C"/>
<path d="M163.982 323.996H176.431V325.611H163.982V323.996Z" fill="#25272C"/>
<path d="M202.334 323.996H340.48V325.611H202.334V323.996Z" fill="#25272C"/>
<path d="M120.564 88.0077H132.269V89.6227H120.564V88.0077Z" fill="#25272C"/>
<path d="M158.5 88.0077H295.029V89.6227H158.5V88.0077Z" fill="#25272C"/>
</svg>
