<svg width="40" height="40" viewBox="0 0 40 40" fill="none" xmlns="http://www.w3.org/2000/svg">
<path d="M24.7318 18.1667L34.1651 11.85C35.1151 11.2167 35.3651 9.91666 34.7318 8.98333L31.6984 4.46667C31.0651 3.51667 29.7651 3.26666 28.8318 3.9L19.3984 10.2167L24.7318 18.1667Z" fill="#32A693"/>
<path d="M24.1982 17.3667L21.2648 19.3333L16.8148 22.3167L16.2315 22.7L15.9648 22.3L12.2315 16.7333L11.9648 16.3333L19.9315 11L24.1982 17.3667Z" fill="#32A693"/>
<path d="M9.39984 26.7L15.9832 22.3L12.2498 16.7333L5.6665 21.1333C4.89984 21.65 4.69984 22.6833 5.2165 23.45L7.09984 26.25C7.59984 27.0167 8.63317 27.2167 9.39984 26.7Z" fill="#32A693"/>
<path d="M27.6003 36.35C27.4336 36.4167 27.2503 36.4667 27.0836 36.4667C26.6003 36.4667 26.1503 36.1833 25.9337 35.7167L19.717 21.9833L13.417 35.7333C13.2003 36.1833 12.7503 36.4667 12.267 36.4667C12.1003 36.4667 11.917 36.4167 11.7503 36.35C11.1336 36.05 10.8503 35.3167 11.1336 34.6833L16.817 22.3167L21.267 19.3333L28.217 34.7C28.5003 35.3167 28.217 36.0667 27.6003 36.35Z" fill="#32A693"/>
</svg>
