<svg width="40" height="40" viewBox="0 0 40 40" fill="none" xmlns="http://www.w3.org/2000/svg">
<path d="M16.6654 29.5H10.3487C4.01536 29.5 2.08203 27.5667 2.08203 21.2333V11.2333C2.08203 4.90001 4.01536 2.96667 10.3487 2.96667H27.8987C34.232 2.96667 36.1654 4.90001 36.1654 11.2333C36.1654 11.9167 35.5987 12.4833 34.9154 12.4833C34.232 12.4833 33.6654 11.9167 33.6654 11.2333C33.6654 6.33334 32.7987 5.46667 27.8987 5.46667H10.3487C5.4487 5.46667 4.58203 6.33334 4.58203 11.2333V21.2333C4.58203 26.1333 5.4487 27 10.3487 27H16.6654C17.3487 27 17.9154 27.5667 17.9154 28.25C17.9154 28.9333 17.3487 29.5 16.6654 29.5Z" fill="#88888C"/>
<path d="M16.668 37.0333C15.9846 37.0333 15.418 36.4667 15.418 35.7833V28.2333C15.418 27.55 15.9846 26.9833 16.668 26.9833C17.3513 26.9833 17.918 27.55 17.918 28.2333V35.7833C17.918 36.4833 17.3513 37.0333 16.668 37.0333Z" fill="#88888C"/>
<path d="M16.6654 22.8333H3.33203C2.6487 22.8333 2.08203 22.2667 2.08203 21.5833C2.08203 20.9 2.6487 20.3333 3.33203 20.3333H16.6654C17.3487 20.3333 17.9154 20.9 17.9154 21.5833C17.9154 22.2667 17.3487 22.8333 16.6654 22.8333Z" fill="#88888C"/>
<path d="M16.6677 37.0333H11.2344C10.551 37.0333 9.98438 36.4667 9.98438 35.7833C9.98438 35.1 10.551 34.5333 11.2344 34.5333H16.6677C17.351 34.5333 17.9177 35.1 17.9177 35.7833C17.9177 36.4667 17.351 37.0333 16.6677 37.0333Z" fill="#88888C"/>
<path d="M31.7328 37.0333H25.8161C21.1995 37.0333 19.6328 35.4667 19.6328 30.85V21.3333C19.6328 16.7167 21.1995 15.15 25.8161 15.15H31.7328C36.3495 15.15 37.9161 16.7167 37.9161 21.3333V30.85C37.9161 35.4833 36.3495 37.0333 31.7328 37.0333ZM25.8161 17.65C22.5495 17.65 22.1328 18.0667 22.1328 21.3333V30.85C22.1328 34.1167 22.5495 34.5333 25.8161 34.5333H31.7328C34.9995 34.5333 35.4161 34.1167 35.4161 30.85V21.3333C35.4161 18.0667 34.9995 17.65 31.7328 17.65H25.8161Z" fill="#88888C"/>
<path d="M28.8346 31.6167C28.4013 31.6167 27.968 31.45 27.6513 31.1333C27.5013 30.9833 27.3846 30.8 27.3013 30.6C27.218 30.3833 27.168 30.1667 27.168 29.95C27.168 29.5167 27.3513 29.0833 27.6513 28.7833C28.0346 28.4 28.618 28.2167 29.168 28.3167C29.268 28.35 29.368 28.3833 29.468 28.4167C29.568 28.4667 29.668 28.5167 29.7513 28.5667C29.8513 28.6333 29.9346 28.7 30.018 28.7833C30.318 29.0833 30.5013 29.5167 30.5013 29.95C30.5013 30.1667 30.4513 30.3833 30.368 30.6C30.2846 30.8 30.168 30.9833 30.018 31.1333C29.9346 31.2167 29.8513 31.2833 29.7513 31.3333C29.668 31.4 29.568 31.45 29.468 31.5C29.368 31.5333 29.268 31.5667 29.168 31.5833C29.0513 31.6167 28.9513 31.6167 28.8346 31.6167Z" fill="#88888C"/>
</svg>
