<svg width="625" height="625" viewBox="0 0 625 625" fill="none" xmlns="http://www.w3.org/2000/svg">
<path d="M197.689 480.961C221.273 480.961 240.392 461.842 240.392 438.258C240.392 414.674 221.273 395.555 197.689 395.555C174.105 395.555 154.986 414.674 154.986 438.258C154.986 461.842 174.105 480.961 197.689 480.961Z" fill="white"/>
<path d="M197.691 481.582C173.802 481.582 154.367 462.147 154.367 438.258C154.367 414.369 173.802 394.934 197.691 394.934C221.579 394.934 241.014 414.369 241.014 438.258C241.014 462.147 221.579 481.582 197.691 481.582ZM197.691 396.175C174.486 396.175 155.608 415.054 155.608 438.258C155.608 461.462 174.486 480.34 197.691 480.34C220.895 480.34 239.773 461.462 239.773 438.258C239.773 415.054 220.895 396.175 197.691 396.175Z" fill="#231F20"/>
<path d="M197.69 469.083C184.596 469.083 172.896 460.768 168.576 448.391L169.748 447.983C173.894 459.862 185.123 467.842 197.69 467.842C210.258 467.842 221.487 459.862 225.633 447.983L226.805 448.391C222.484 460.768 210.784 469.083 197.69 469.083Z" fill="#231F20"/>
<path d="M227.897 449.355C225.304 449.355 223.222 448.257 223.127 448.206L223.712 447.112C223.734 447.124 225.973 448.299 228.513 448.09L228.613 449.327C228.371 449.346 228.132 449.355 227.897 449.355Z" fill="#231F20"/>
<path d="M167.255 449.355C167.02 449.355 166.782 449.346 166.539 449.327L166.639 448.09C169.179 448.298 171.418 447.124 171.44 447.112L172.025 448.206C171.931 448.257 169.848 449.355 167.255 449.355Z" fill="#231F20"/>
<path d="M208.356 440.737C212.138 440.737 215.204 434.274 215.204 426.302C215.204 418.33 212.138 411.868 208.356 411.868C204.574 411.868 201.508 418.33 201.508 426.302C201.508 434.274 204.574 440.737 208.356 440.737Z" fill="#231F20"/>
<path d="M187.024 440.737C190.806 440.737 193.872 434.274 193.872 426.302C193.872 418.33 190.806 411.868 187.024 411.868C183.242 411.868 180.176 418.33 180.176 426.302C180.176 434.274 183.242 440.737 187.024 440.737Z" fill="#231F20"/>
<path d="M99.0017 420.386C122.586 420.386 141.705 401.267 141.705 377.683C141.705 354.099 122.586 334.98 99.0017 334.98C75.4176 334.98 56.2988 354.099 56.2988 377.683C56.2988 401.267 75.4176 420.386 99.0017 420.386Z" fill="white"/>
<path d="M99.0015 421.007C75.1127 421.007 55.6777 401.572 55.6777 377.683C55.6777 353.794 75.1127 334.359 99.0015 334.359C122.89 334.359 142.325 353.794 142.325 377.683C142.325 401.572 122.89 421.007 99.0015 421.007ZM99.0015 335.601C75.7969 335.601 56.9186 354.479 56.9186 377.683C56.9186 400.888 75.7969 419.766 99.0015 419.766C122.206 419.766 141.084 400.888 141.084 377.683C141.084 354.479 122.206 335.601 99.0015 335.601Z" fill="#231F20"/>
<path d="M99.0009 408.508C85.9063 408.508 74.2067 400.192 69.8867 387.816L71.0584 387.408C75.2042 399.286 86.4334 407.267 99.0009 407.267C111.568 407.267 122.797 399.286 126.943 387.408L128.115 387.816C123.795 400.192 112.095 408.508 99.0009 408.508Z" fill="#231F20"/>
<path d="M129.21 388.78C126.617 388.78 124.534 387.681 124.439 387.63L125.024 386.536C125.047 386.548 127.284 387.723 129.826 387.514L129.926 388.751C129.684 388.771 129.445 388.78 129.21 388.78Z" fill="#231F20"/>
<path d="M68.5678 388.78C68.3328 388.78 68.0941 388.771 67.8516 388.751L67.9516 387.514C70.4924 387.722 72.7307 386.548 72.7528 386.536L73.3378 387.63C73.2432 387.682 71.1603 388.78 68.5678 388.78Z" fill="#231F20"/>
<path d="M109.668 380.162C113.45 380.162 116.516 373.699 116.516 365.727C116.516 357.755 113.45 351.293 109.668 351.293C105.886 351.293 102.82 357.755 102.82 365.727C102.82 373.699 105.886 380.162 109.668 380.162Z" fill="#231F20"/>
<path d="M88.3362 380.162C92.1182 380.162 95.1841 373.699 95.1841 365.727C95.1841 357.755 92.1182 351.293 88.3362 351.293C84.5542 351.293 81.4883 357.755 81.4883 365.727C81.4883 373.699 84.5542 380.162 88.3362 380.162Z" fill="#231F20"/>
<path d="M520.535 374.013C544.119 374.013 563.238 354.894 563.238 331.31C563.238 307.726 544.119 288.607 520.535 288.607C496.951 288.607 477.832 307.726 477.832 331.31C477.832 354.894 496.951 374.013 520.535 374.013Z" fill="white"/>
<path d="M520.535 374.633C496.646 374.633 477.211 355.198 477.211 331.31C477.211 307.421 496.646 287.986 520.535 287.986C544.423 287.986 563.858 307.421 563.858 331.31C563.858 355.198 544.423 374.633 520.535 374.633ZM520.535 289.227C497.331 289.227 478.452 308.106 478.452 331.31C478.452 354.514 497.331 373.393 520.535 373.393C543.739 373.393 562.617 354.514 562.617 331.31C562.617 308.106 543.739 289.227 520.535 289.227Z" fill="#231F20"/>
<path d="M520.535 362.135C507.441 362.135 495.741 353.819 491.422 341.443L492.593 341.035C496.739 352.913 507.968 360.894 520.536 360.894C533.103 360.894 544.332 352.913 548.478 341.035L549.649 341.443C545.329 353.819 533.629 362.135 520.535 362.135Z" fill="#231F20"/>
<path d="M550.743 342.407C548.15 342.407 546.067 341.308 545.973 341.257L546.558 340.163C546.58 340.175 548.819 341.349 551.359 341.141L551.458 342.378C551.217 342.398 550.978 342.407 550.743 342.407Z" fill="#231F20"/>
<path d="M490.103 342.407C489.868 342.407 489.629 342.398 489.387 342.378L489.487 341.141C492.04 341.35 494.265 340.175 494.287 340.163L494.873 341.257C494.778 341.308 492.695 342.407 490.103 342.407Z" fill="#231F20"/>
<path d="M531.201 333.789C534.983 333.789 538.049 327.326 538.049 319.354C538.049 311.382 534.983 304.92 531.201 304.92C527.419 304.92 524.354 311.382 524.354 319.354C524.354 327.326 527.419 333.789 531.201 333.789Z" fill="#231F20"/>
<path d="M509.869 333.789C513.651 333.789 516.717 327.326 516.717 319.354C516.717 311.382 513.651 304.92 509.869 304.92C506.087 304.92 503.021 311.382 503.021 319.354C503.021 327.326 506.087 333.789 509.869 333.789Z" fill="#231F20"/>
<path d="M477.832 420.386C501.416 420.386 520.535 401.267 520.535 377.683C520.535 354.099 501.416 334.98 477.832 334.98C454.248 334.98 435.129 354.099 435.129 377.683C435.129 401.267 454.248 420.386 477.832 420.386Z" fill="white"/>
<path d="M477.832 421.007C453.943 421.007 434.508 401.572 434.508 377.683C434.508 353.794 453.943 334.359 477.832 334.359C501.72 334.359 521.155 353.794 521.155 377.683C521.155 401.572 501.72 421.007 477.832 421.007ZM477.832 335.601C454.627 335.601 435.749 354.479 435.749 377.683C435.749 400.888 454.627 419.766 477.832 419.766C501.036 419.766 519.914 400.888 519.914 377.683C519.914 354.479 501.036 335.601 477.832 335.601Z" fill="#231F20"/>
<path d="M477.832 408.508C464.738 408.508 453.038 400.192 448.719 387.816L449.89 387.408C454.036 399.286 465.265 407.267 477.832 407.267C490.4 407.267 501.629 399.286 505.775 387.408L506.946 387.816C502.627 400.192 490.927 408.508 477.832 408.508Z" fill="#231F20"/>
<path d="M508.04 388.78C505.447 388.78 503.365 387.681 503.27 387.63L503.855 386.536C503.877 386.548 506.117 387.724 508.656 387.514L508.756 388.751C508.514 388.771 508.275 388.78 508.04 388.78Z" fill="#231F20"/>
<path d="M447.4 388.78C447.165 388.78 446.926 388.771 446.684 388.751L446.784 387.514C449.329 387.721 451.562 386.549 451.584 386.536L452.169 387.63C452.075 387.682 449.992 388.78 447.4 388.78Z" fill="#231F20"/>
<path d="M488.498 380.162C492.28 380.162 495.346 373.699 495.346 365.727C495.346 357.755 492.28 351.293 488.498 351.293C484.716 351.293 481.65 357.755 481.65 365.727C481.65 373.699 484.716 380.162 488.498 380.162Z" fill="#231F20"/>
<path d="M467.166 380.162C470.948 380.162 474.014 373.699 474.014 365.727C474.014 357.755 470.948 351.293 467.166 351.293C463.384 351.293 460.318 357.755 460.318 365.727C460.318 373.699 463.384 380.162 467.166 380.162Z" fill="#231F20"/>
<path d="M444.308 376.007H324.6L313.95 384.613L303.299 376.007H183.591C181.473 376.007 179.756 374.29 179.756 372.172V319.269C179.756 317.151 181.473 315.434 183.591 315.434H444.309C446.427 315.434 448.144 317.151 448.144 319.269V372.172C448.143 374.29 446.426 376.007 444.308 376.007Z" fill="white"/>
<path d="M313.949 385.41L303.079 376.628H183.59C181.134 376.628 179.135 374.629 179.135 372.172V319.269C179.135 316.812 181.134 314.814 183.59 314.814H444.308C446.765 314.814 448.764 316.812 448.764 319.269V372.172C448.764 374.628 446.765 376.627 444.308 376.627H324.819L313.949 385.41ZM183.59 316.054C181.818 316.054 180.376 317.497 180.376 319.269V372.172C180.376 373.944 181.818 375.387 183.59 375.387H303.518L313.949 383.815L324.381 375.387H444.308C446.081 375.387 447.523 373.944 447.523 372.172V319.269C447.523 317.497 446.081 316.054 444.308 316.054H183.59Z" fill="#231F20"/>
<path d="M218.284 327.748L223.595 338.51L235.472 340.236L226.877 348.613L228.906 360.441L218.284 354.857L207.661 360.441L209.689 348.613L201.096 340.236L212.972 338.51L218.284 327.748Z" fill="#32A693"/>
<path d="M228.906 361.062C228.807 361.062 228.708 361.038 228.617 360.99L218.283 355.558L207.949 360.99C207.74 361.101 207.487 361.082 207.295 360.943C207.105 360.805 207.009 360.57 207.049 360.337L209.022 348.83L200.662 340.68C200.493 340.515 200.432 340.269 200.505 340.044C200.578 339.82 200.772 339.656 201.006 339.622L212.56 337.943L217.727 327.473C217.831 327.262 218.047 327.128 218.283 327.128C218.519 327.128 218.735 327.262 218.839 327.473L224.006 337.943L235.56 339.622C235.794 339.656 235.988 339.82 236.061 340.044C236.134 340.269 236.073 340.515 235.904 340.68L227.543 348.83L229.517 360.337C229.557 360.57 229.461 360.805 229.27 360.943C229.162 361.022 229.035 361.062 228.906 361.062ZM218.283 354.236C218.382 354.236 218.482 354.26 218.572 354.308L228.082 359.308L226.266 348.718C226.231 348.517 226.298 348.311 226.444 348.169L234.138 340.669L223.505 339.124C223.303 339.095 223.128 338.968 223.038 338.785L218.283 329.15L213.527 338.785C213.437 338.968 213.262 339.095 213.06 339.124L202.427 340.669L210.122 348.169C210.268 348.312 210.335 348.517 210.3 348.718L208.484 359.308L217.994 354.308C218.085 354.26 218.184 354.236 218.283 354.236Z" fill="#32A693"/>
<path d="M266.116 327.748L271.427 338.51L283.304 340.236L274.71 348.613L276.739 360.441L266.116 354.857L255.493 360.441L257.522 348.613L248.928 340.236L260.804 338.51L266.116 327.748Z" fill="#32A693"/>
<path d="M276.74 361.062C276.641 361.062 276.542 361.038 276.451 360.99L266.117 355.558L255.783 360.99C255.574 361.101 255.321 361.082 255.129 360.943C254.939 360.805 254.843 360.57 254.883 360.337L256.856 348.83L248.496 340.68C248.327 340.515 248.266 340.269 248.339 340.044C248.412 339.82 248.606 339.656 248.84 339.622L260.394 337.943L265.561 327.473C265.665 327.262 265.881 327.128 266.117 327.128C266.353 327.128 266.569 327.262 266.673 327.473L271.84 337.943L283.394 339.622C283.628 339.656 283.822 339.82 283.895 340.044C283.968 340.269 283.907 340.515 283.738 340.68L275.377 348.83L277.351 360.337C277.391 360.57 277.295 360.805 277.104 360.943C276.996 361.022 276.868 361.062 276.74 361.062ZM266.117 354.236C266.216 354.236 266.315 354.26 266.406 354.308L275.916 359.308L274.099 348.718C274.065 348.517 274.131 348.311 274.278 348.169L281.971 340.669L271.339 339.124C271.137 339.095 270.962 338.968 270.872 338.785L266.116 329.15L261.361 338.785C261.271 338.968 261.096 339.095 260.894 339.124L250.261 340.669L257.955 348.169C258.101 348.312 258.168 348.517 258.134 348.718L256.317 359.308L265.827 354.308C265.919 354.26 266.018 354.236 266.117 354.236Z" fill="#32A693"/>
<path d="M313.95 327.748L319.261 338.51L331.138 340.236L322.544 348.613L324.573 360.441L313.95 354.857L303.327 360.441L305.356 348.613L296.762 340.236L308.638 338.51L313.95 327.748Z" fill="#32A693"/>
<path d="M324.572 361.062C324.473 361.062 324.374 361.038 324.283 360.99L313.949 355.558L303.615 360.99C303.406 361.101 303.153 361.082 302.961 360.943C302.771 360.805 302.675 360.57 302.715 360.337L304.688 348.83L296.328 340.68C296.159 340.515 296.098 340.269 296.171 340.044C296.244 339.82 296.438 339.656 296.672 339.622L308.226 337.943L313.393 327.473C313.497 327.262 313.713 327.128 313.949 327.128C314.185 327.128 314.401 327.262 314.505 327.473L319.672 337.943L331.226 339.622C331.459 339.656 331.653 339.82 331.726 340.044C331.799 340.269 331.738 340.515 331.569 340.68L323.209 348.83L325.183 360.337C325.223 360.57 325.127 360.805 324.936 360.943C324.828 361.022 324.7 361.062 324.572 361.062ZM313.949 354.236C314.048 354.236 314.147 354.26 314.238 354.308L323.748 359.308L321.932 348.718C321.898 348.517 321.964 348.311 322.111 348.169L329.804 340.669L319.171 339.124C318.969 339.095 318.795 338.968 318.704 338.785L313.949 329.15L309.194 338.785C309.104 338.968 308.929 339.095 308.727 339.124L298.094 340.669L305.788 348.169C305.934 348.312 306.001 348.517 305.966 348.718L304.15 359.308L313.66 354.308C313.75 354.26 313.85 354.236 313.949 354.236Z" fill="#32A693"/>
<path d="M361.782 327.748L367.093 338.51L378.97 340.236L370.376 348.613L372.405 360.441L361.782 354.857L351.159 360.441L353.188 348.613L344.594 340.236L356.47 338.51L361.782 327.748Z" fill="#32A693"/>
<path d="M351.158 361.062C351.03 361.062 350.902 361.022 350.794 360.943C350.603 360.805 350.507 360.57 350.547 360.337L352.521 348.83L344.16 340.68C343.991 340.515 343.93 340.269 344.003 340.044C344.076 339.82 344.271 339.656 344.504 339.622L356.058 337.943L361.225 327.473C361.329 327.262 361.545 327.128 361.781 327.128C362.017 327.128 362.233 327.262 362.337 327.473L367.504 337.943L379.058 339.622C379.291 339.656 379.486 339.82 379.558 340.044C379.631 340.269 379.571 340.515 379.401 340.68L371.041 348.83L373.015 360.337C373.055 360.57 372.959 360.805 372.768 360.943C372.577 361.082 372.323 361.101 372.115 360.99L361.781 355.558L351.446 360.99C351.356 361.038 351.258 361.062 351.158 361.062ZM345.926 340.669L353.621 348.169C353.767 348.312 353.833 348.517 353.799 348.718L351.983 359.308L361.493 354.308C361.674 354.212 361.89 354.212 362.071 354.308L371.581 359.308L369.764 348.718C369.73 348.517 369.797 348.311 369.943 348.169L377.637 340.669L367.004 339.124C366.802 339.095 366.628 338.968 366.537 338.785L361.782 329.15L357.027 338.785C356.936 338.968 356.762 339.095 356.56 339.124L345.926 340.669Z" fill="#32A693"/>
<path d="M409.614 327.748L414.925 338.51L426.802 340.236L418.208 348.613L420.237 360.441L409.614 354.857L398.991 360.441L401.02 348.613L392.426 340.236L404.302 338.51L409.614 327.748Z" fill="#32A693"/>
<path d="M420.238 361.062C420.139 361.062 420.04 361.038 419.95 360.99L409.615 355.558L399.281 360.99C399.072 361.101 398.82 361.082 398.628 360.943C398.437 360.805 398.341 360.57 398.381 360.337L400.354 348.83L391.994 340.68C391.825 340.515 391.764 340.269 391.837 340.044C391.91 339.82 392.105 339.656 392.338 339.622L403.892 337.943L409.058 327.473C409.163 327.262 409.379 327.128 409.614 327.128C409.85 327.128 410.066 327.262 410.171 327.473L415.337 337.943L426.891 339.622C427.125 339.656 427.319 339.82 427.392 340.044C427.465 340.269 427.404 340.515 427.235 340.68L418.875 348.83L420.849 360.337C420.889 360.57 420.793 360.805 420.602 360.943C420.495 361.022 420.367 361.062 420.238 361.062ZM409.615 354.236C409.714 354.236 409.813 354.26 409.903 354.308L419.414 359.308L417.597 348.718C417.563 348.517 417.63 348.311 417.776 348.169L425.47 340.669L414.837 339.124C414.635 339.095 414.46 338.968 414.37 338.785L409.615 329.15L404.86 338.785C404.769 338.968 404.595 339.095 404.393 339.124L393.76 340.669L401.454 348.169C401.6 348.312 401.667 348.517 401.633 348.718L399.817 359.308L409.327 354.308C409.417 354.26 409.516 354.236 409.615 354.236Z" fill="#32A693"/>
<path d="M170.635 327.748C194.219 327.748 213.337 308.629 213.337 285.045C213.337 261.461 194.219 242.342 170.635 242.342C147.05 242.342 127.932 261.461 127.932 285.045C127.932 308.629 147.05 327.748 170.635 327.748Z" fill="white"/>
<path d="M170.634 328.368C146.745 328.368 127.311 308.933 127.311 285.045C127.311 261.156 146.746 241.721 170.634 241.721C194.522 241.721 213.957 261.156 213.957 285.045C213.957 308.933 194.522 328.368 170.634 328.368ZM170.634 242.962C147.429 242.962 128.551 261.84 128.551 285.045C128.551 308.249 147.429 327.127 170.634 327.127C193.838 327.127 212.717 308.249 212.717 285.045C212.717 261.84 193.838 242.962 170.634 242.962Z" fill="#231F20"/>
<path d="M170.633 315.87C157.539 315.87 145.839 307.554 141.52 295.178L142.691 294.77C146.837 306.648 158.066 314.629 170.634 314.629C183.201 314.629 194.43 306.648 198.576 294.77L199.748 295.178C195.427 307.554 183.727 315.87 170.633 315.87Z" fill="#231F20"/>
<path d="M200.841 296.141C198.248 296.141 196.165 295.043 196.07 294.992L196.655 293.898C196.677 293.91 198.917 295.084 201.457 294.876L201.557 296.113C201.314 296.133 201.075 296.141 200.841 296.141Z" fill="#231F20"/>
<path d="M140.201 296.141C139.966 296.141 139.727 296.133 139.484 296.113L139.584 294.876C142.124 295.083 144.364 293.91 144.386 293.898L144.971 294.992C144.876 295.043 142.793 296.141 140.201 296.141Z" fill="#231F20"/>
<path d="M181.299 287.524C185.081 287.524 188.147 281.061 188.147 273.089C188.147 265.117 185.081 258.655 181.299 258.655C177.517 258.655 174.451 265.117 174.451 273.089C174.451 281.061 177.517 287.524 181.299 287.524Z" fill="#231F20"/>
<path d="M159.969 287.524C163.751 287.524 166.817 281.061 166.817 273.089C166.817 265.117 163.751 258.655 159.969 258.655C156.187 258.655 153.121 265.117 153.121 273.089C153.121 281.061 156.187 287.524 159.969 287.524Z" fill="#231F20"/>
<path d="M376.592 476.971C400.176 476.971 419.295 457.853 419.295 434.268C419.295 410.684 400.176 391.565 376.592 391.565C353.007 391.565 333.889 410.684 333.889 434.268C333.889 457.853 353.007 476.971 376.592 476.971Z" fill="white"/>
<path d="M376.591 477.592C352.703 477.592 333.268 458.157 333.268 434.268C333.268 410.379 352.703 390.944 376.591 390.944C400.48 390.944 419.915 410.379 419.915 434.268C419.915 458.157 400.48 477.592 376.591 477.592ZM376.591 392.185C353.387 392.185 334.509 411.064 334.509 434.268C334.509 457.472 353.387 476.35 376.591 476.35C399.795 476.35 418.674 457.472 418.674 434.268C418.674 411.064 399.796 392.185 376.591 392.185Z" fill="#231F20"/>
<path d="M376.59 465.093C363.496 465.093 351.796 456.777 347.477 444.401L348.648 443.993C352.794 455.872 364.023 463.852 376.59 463.852C389.158 463.852 400.387 455.872 404.533 443.993L405.704 444.401C401.385 456.777 389.685 465.093 376.59 465.093Z" fill="#231F20"/>
<path d="M406.798 445.365C404.204 445.365 402.122 444.266 402.027 444.215L402.612 443.121C402.634 443.133 404.876 444.307 407.414 444.1L407.514 445.337C407.272 445.356 407.033 445.365 406.798 445.365Z" fill="#231F20"/>
<path d="M346.157 445.365C345.923 445.365 345.683 445.356 345.441 445.337L345.541 444.1C348.081 444.306 350.321 443.133 350.343 443.121L350.928 444.215C350.833 444.266 348.75 445.365 346.157 445.365Z" fill="#231F20"/>
<path d="M387.258 436.747C391.04 436.747 394.106 430.284 394.106 422.312C394.106 414.34 391.04 407.878 387.258 407.878C383.476 407.878 380.41 414.34 380.41 422.312C380.41 430.284 383.476 436.747 387.258 436.747Z" fill="#231F20"/>
<path d="M365.926 436.747C369.708 436.747 372.774 430.284 372.774 422.312C372.774 414.34 369.708 407.878 365.926 407.878C362.144 407.878 359.078 414.34 359.078 422.312C359.078 430.284 362.144 436.747 365.926 436.747Z" fill="#231F20"/>
<path d="M301.89 183.134C325.475 183.134 344.593 164.015 344.593 140.431C344.593 116.847 325.475 97.7283 301.89 97.7283C278.306 97.7283 259.188 116.847 259.188 140.431C259.188 164.015 278.306 183.134 301.89 183.134Z" fill="white"/>
<path d="M301.89 183.755C278.001 183.755 258.566 164.32 258.566 140.431C258.566 116.543 278.001 97.1071 301.89 97.1071C325.779 97.1071 345.213 116.543 345.213 140.431C345.213 164.32 325.779 183.755 301.89 183.755ZM301.89 98.3483C278.686 98.3483 259.807 117.227 259.807 140.431C259.807 163.635 278.686 182.514 301.89 182.514C325.095 182.514 343.973 163.635 343.973 140.431C343.972 117.227 325.095 98.3483 301.89 98.3483Z" fill="#231F20"/>
<path d="M301.891 171.256C288.797 171.256 277.097 162.94 272.777 150.564L273.949 150.156C278.095 162.035 289.324 170.015 301.892 170.015C314.459 170.015 325.688 162.035 329.834 150.156L331.005 150.564C326.685 162.94 314.985 171.256 301.891 171.256Z" fill="#231F20"/>
<path d="M332.099 151.528C329.506 151.528 327.423 150.43 327.328 150.379L327.913 149.285C327.936 149.297 330.175 150.468 332.714 150.262L332.814 151.5C332.573 151.519 332.334 151.528 332.099 151.528Z" fill="#231F20"/>
<path d="M271.456 151.528C271.221 151.528 270.983 151.519 270.74 151.5L270.84 150.262C273.381 150.467 275.619 149.297 275.641 149.285L276.226 150.379C276.131 150.43 274.049 151.528 271.456 151.528Z" fill="#231F20"/>
<path d="M312.557 142.91C316.339 142.91 319.405 136.447 319.405 128.475C319.405 120.503 316.339 114.041 312.557 114.041C308.775 114.041 305.709 120.503 305.709 128.475C305.709 136.447 308.775 142.91 312.557 142.91Z" fill="#231F20"/>
<path d="M291.225 142.91C295.007 142.91 298.073 136.447 298.073 128.475C298.073 120.503 295.007 114.041 291.225 114.041C287.443 114.041 284.377 120.503 284.377 128.475C284.377 136.447 287.443 142.91 291.225 142.91Z" fill="#231F20"/>
<path d="M485.201 284.674H458.793L448.142 293.28L437.491 284.674H411.083C408.965 284.674 407.248 282.957 407.248 280.839V225.997C407.248 223.88 408.965 222.163 411.083 222.163H485.201C487.319 222.163 489.036 223.88 489.036 225.997V280.839C489.036 282.957 487.319 284.674 485.201 284.674Z" fill="white"/>
<path d="M448.142 294.077L437.272 285.295H411.082C408.626 285.295 406.627 283.296 406.627 280.839V225.997C406.627 223.541 408.626 221.542 411.082 221.542H485.201C487.658 221.542 489.657 223.541 489.657 225.997V280.839C489.657 283.296 487.658 285.295 485.201 285.295H459.012L448.142 294.077ZM411.083 222.783C409.31 222.783 407.868 224.225 407.868 225.997V280.839C407.868 282.612 409.31 284.054 411.083 284.054H437.71L448.142 292.483L458.574 284.054H485.201C486.974 284.054 488.416 282.612 488.416 280.839V225.997C488.416 224.225 486.974 222.783 485.201 222.783H411.083Z" fill="#231F20"/>
<path d="M468.024 240.79C459.452 229.718 448.142 243.29 448.142 243.29C448.142 243.29 436.832 229.718 428.26 240.79C419.688 251.862 448.142 273.173 448.142 273.173C448.142 273.173 476.596 251.862 468.024 240.79Z" fill="#F53B57"/>
<path d="M291.291 223.086H264.883L254.232 231.692L243.581 223.086H217.173C215.055 223.086 213.338 221.369 213.338 219.251V164.409C213.338 162.291 215.055 160.574 217.173 160.574H291.291C293.409 160.574 295.126 162.291 295.126 164.409V219.251C295.126 221.369 293.409 223.086 291.291 223.086Z" fill="white"/>
<path d="M254.232 232.489L243.361 223.707H217.172C214.716 223.707 212.717 221.708 212.717 219.251V164.409C212.717 161.952 214.716 159.953 217.172 159.953H291.291C293.747 159.953 295.746 161.952 295.746 164.409V219.251C295.746 221.708 293.747 223.706 291.291 223.706H265.101L254.232 232.489ZM217.172 161.194C215.4 161.194 213.958 162.636 213.958 164.409V219.251C213.958 221.023 215.4 222.465 217.172 222.465H243.8L254.231 230.894L264.663 222.465H291.291C293.063 222.465 294.505 221.023 294.505 219.251V164.409C294.505 162.636 293.063 161.194 291.291 161.194H217.172Z" fill="#231F20"/>
<path d="M274.114 179.202C265.542 168.13 254.232 181.702 254.232 181.702C254.232 181.702 242.922 168.13 234.35 179.202C225.778 190.274 254.232 211.584 254.232 211.584C254.232 211.584 282.686 190.274 274.114 179.202Z" fill="#F53B57"/>
<path d="M506.694 491.425H480.285L469.634 500.031L458.984 491.425H432.575C430.457 491.425 428.74 489.708 428.74 487.59V432.749C428.74 430.631 430.457 428.914 432.575 428.914H506.694C508.811 428.914 510.529 430.631 510.529 432.749V487.59C510.529 489.708 508.812 491.425 506.694 491.425Z" fill="white"/>
<path d="M469.634 500.828L458.764 492.046H432.575C430.118 492.046 428.119 490.047 428.119 487.59V432.748C428.119 430.292 430.118 428.293 432.575 428.293H506.693C509.15 428.293 511.148 430.292 511.148 432.748V487.59C511.148 490.047 509.15 492.046 506.693 492.046H480.504L469.634 500.828ZM432.575 429.534C430.802 429.534 429.36 430.976 429.36 432.748V487.59C429.36 489.363 430.802 490.805 432.575 490.805H459.202L469.634 499.234L480.065 490.805H506.693C508.465 490.805 509.907 489.363 509.907 487.59V432.748C509.907 430.976 508.465 429.534 506.693 429.534H432.575Z" fill="#231F20"/>
<path d="M489.516 447.541C480.944 436.469 469.634 450.041 469.634 450.041C469.634 450.041 458.324 436.469 449.752 447.541C441.181 458.613 469.634 479.924 469.634 479.924C469.634 479.924 498.088 458.613 489.516 447.541Z" fill="#F53B57"/>
<path d="M308.959 500.77H282.551L271.9 509.376L261.249 500.77H234.841C232.723 500.77 231.006 499.053 231.006 496.935V442.093C231.006 439.975 232.723 438.258 234.841 438.258H308.959C311.077 438.258 312.794 439.975 312.794 442.093V496.935C312.794 499.053 311.077 500.77 308.959 500.77Z" fill="white"/>
<path d="M271.901 510.173L261.031 501.39H234.842C232.385 501.39 230.387 499.392 230.387 496.935V442.093C230.387 439.637 232.385 437.638 234.842 437.638H308.96C311.417 437.638 313.416 439.637 313.416 442.093V496.935C313.416 499.392 311.417 501.39 308.96 501.39H282.772L271.901 510.173ZM234.842 438.879C233.07 438.879 231.628 440.321 231.628 442.093V496.935C231.628 498.708 233.07 500.15 234.842 500.15H261.47L271.901 508.578L282.333 500.15H308.96C310.733 500.15 312.175 498.708 312.175 496.935V442.093C312.175 440.321 310.733 438.879 308.96 438.879H234.842Z" fill="#231F20"/>
<path d="M291.782 456.886C283.21 445.814 271.9 459.386 271.9 459.386C271.9 459.386 260.59 445.814 252.018 456.886C243.446 467.958 271.9 489.268 271.9 489.268C271.9 489.268 300.354 467.958 291.782 456.886Z" fill="#F53B57"/>
<path d="M404.81 228.316C428.395 228.316 447.513 209.197 447.513 185.613C447.513 162.029 428.395 142.91 404.81 142.91C381.226 142.91 362.107 162.029 362.107 185.613C362.107 209.197 381.226 228.316 404.81 228.316Z" fill="white"/>
<path d="M404.81 228.937C380.921 228.937 361.486 209.502 361.486 185.613C361.486 161.724 380.921 142.289 404.81 142.289C428.699 142.289 448.134 161.724 448.134 185.613C448.134 209.502 428.699 228.937 404.81 228.937ZM404.81 143.531C381.606 143.531 362.728 162.409 362.728 185.613C362.728 208.818 381.606 227.696 404.81 227.696C428.014 227.696 446.893 208.818 446.893 185.613C446.893 162.409 428.014 143.531 404.81 143.531Z" fill="#231F20"/>
<path d="M404.811 216.438C391.716 216.438 380.016 208.122 375.697 195.746L376.869 195.338C381.014 207.217 392.244 215.197 404.811 215.197C417.379 215.197 428.608 207.217 432.754 195.338L433.925 195.746C429.605 208.122 417.905 216.438 404.811 216.438Z" fill="#231F20"/>
<path d="M435.018 196.71C432.426 196.71 430.343 195.612 430.248 195.561L430.833 194.467C430.856 194.479 433.096 195.651 435.634 195.445L435.734 196.682C435.493 196.701 435.253 196.71 435.018 196.71Z" fill="#231F20"/>
<path d="M374.376 196.71C374.141 196.71 373.902 196.702 373.66 196.682L373.76 195.445C376.306 195.653 378.539 194.48 378.561 194.467L379.146 195.561C379.051 195.612 376.969 196.71 374.376 196.71Z" fill="#231F20"/>
<path d="M415.477 188.092C419.259 188.092 422.325 181.63 422.325 173.658C422.325 165.686 419.259 159.223 415.477 159.223C411.695 159.223 408.629 165.686 408.629 173.658C408.629 181.63 411.695 188.092 415.477 188.092Z" fill="#231F20"/>
<path d="M394.145 188.092C397.927 188.092 400.993 181.63 400.993 173.658C400.993 165.686 397.927 159.223 394.145 159.223C390.363 159.223 387.297 165.686 387.297 173.658C387.297 181.63 390.363 188.092 394.145 188.092Z" fill="#231F20"/>
<path d="M323.222 288.607C346.807 288.607 365.925 269.488 365.925 245.904C365.925 222.32 346.807 203.201 323.222 203.201C299.638 203.201 280.52 222.32 280.52 245.904C280.52 269.488 299.638 288.607 323.222 288.607Z" fill="white"/>
<path d="M323.222 289.227C299.333 289.227 279.898 269.792 279.898 245.904C279.898 222.015 299.333 202.58 323.222 202.58C347.111 202.58 366.546 222.015 366.546 245.904C366.546 269.792 347.111 289.227 323.222 289.227ZM323.222 203.821C300.017 203.821 281.139 222.7 281.139 245.904C281.139 269.108 300.017 287.986 323.222 287.986C346.426 287.986 365.304 269.108 365.304 245.904C365.304 222.7 346.426 203.821 323.222 203.821Z" fill="#231F20"/>
<path d="M323.223 276.729C310.129 276.729 298.429 268.413 294.109 256.037L295.281 255.629C299.427 267.507 310.656 275.488 323.223 275.488C335.79 275.488 347.019 267.507 351.166 255.629L352.337 256.037C348.017 268.413 336.317 276.729 323.223 276.729Z" fill="#231F20"/>
<path d="M353.431 257C350.838 257 348.755 255.902 348.66 255.851L349.245 254.757C349.268 254.769 351.507 255.944 354.046 255.735L354.146 256.972C353.905 256.991 353.666 257 353.431 257Z" fill="#231F20"/>
<path d="M292.789 257C292.554 257 292.315 256.992 292.072 256.972L292.172 255.735C294.712 255.943 296.951 254.769 296.974 254.757L297.559 255.851C297.464 255.902 295.381 257 292.789 257Z" fill="#231F20"/>
<path d="M333.889 248.383C337.671 248.383 340.737 241.92 340.737 233.948C340.737 225.976 337.671 219.514 333.889 219.514C330.107 219.514 327.041 225.976 327.041 233.948C327.041 241.92 330.107 248.383 333.889 248.383Z" fill="#231F20"/>
<path d="M312.557 248.383C316.339 248.383 319.405 241.92 319.405 233.948C319.405 225.976 316.339 219.514 312.557 219.514C308.775 219.514 305.709 225.976 305.709 233.948C305.709 241.92 308.775 248.383 312.557 248.383Z" fill="#231F20"/>
<path d="M559.08 405.277L561.926 412.673L569.322 415.52L561.926 418.365L559.08 425.762L556.231 418.368L548.838 415.52L556.234 412.673L559.08 405.277Z" fill="#FFD32A"/>
<path d="M252.365 265.866L255.211 273.262L262.607 276.108L255.211 278.954L252.365 286.35L249.516 278.957L242.123 276.108L249.519 273.262L252.365 265.866Z" fill="#FFD32A"/>
<path d="M116.516 463.575L119.362 470.971L126.758 473.817L119.362 476.663L116.516 484.059L113.667 476.666L106.273 473.817L113.67 470.971L116.516 463.575Z" fill="#FFD32A"/>
<path d="M380.41 276.108L383.256 283.504L390.652 286.35L383.256 289.196L380.41 296.592L377.561 289.199L370.168 286.35L377.564 283.504L380.41 276.108Z" fill="#FFD32A"/>
<path d="M284.81 399.545L287.656 406.942L295.053 409.787L287.656 412.634L284.81 420.03L281.961 412.637L274.568 409.787L281.964 406.942L284.81 399.545Z" fill="#FFD32A"/>
<path d="M370.168 507.408L373.014 514.804L380.41 517.65L373.014 520.496L370.168 527.892L367.319 520.499L359.926 517.65L367.322 514.804L370.168 507.408Z" fill="#FFD32A"/>
<path d="M174.453 140.665L177.299 148.061L184.696 150.907L177.299 153.753L174.453 161.15L171.604 153.756L164.211 150.907L171.607 148.061L174.453 140.665Z" fill="#FFD32A"/>
<path d="M510.53 185.3L513.375 192.696L520.772 195.542L513.375 198.388L510.53 205.784L507.68 198.391L500.287 195.542L507.683 192.696L510.53 185.3Z" fill="#FFD32A"/>
</svg>
