<svg width="76" height="76" viewBox="0 0 76 76" fill="none" xmlns="http://www.w3.org/2000/svg">
<path d="M73.8508 33.275L68.7508 27.35C67.7758 26.225 66.9883 24.125 66.9883 22.625V16.25C66.9883 12.275 63.7258 9.01251 59.7508 9.01251H53.3758C51.9133 9.01251 49.7758 8.22501 48.6508 7.25001L42.7258 2.15001C40.1383 -0.0624938 35.9008 -0.0624938 33.2758 2.15001L27.3883 7.28751C26.2633 8.22501 24.1258 9.01251 22.6633 9.01251H16.1758C12.2008 9.01251 8.93828 12.275 8.93828 16.25V22.6625C8.93828 24.125 8.15078 26.225 7.21328 27.35L2.15078 33.3125C-0.0242186 35.9 -0.0242186 40.1 2.15078 42.6875L7.21328 48.65C8.15078 49.775 8.93828 51.875 8.93828 53.3375V59.75C8.93828 63.725 12.2008 66.9875 16.1758 66.9875H22.6633C24.1258 66.9875 26.2633 67.775 27.3883 68.75L33.3133 73.85C35.9008 76.0625 40.1383 76.0625 42.7633 73.85L48.6883 68.75C49.8133 67.775 51.9133 66.9875 53.4133 66.9875H59.7883C63.7633 66.9875 67.0258 63.725 67.0258 59.75V53.375C67.0258 51.9125 67.8133 49.775 68.7883 48.65L73.8883 42.725C76.0633 40.1375 76.0633 35.8625 73.8508 33.275ZM53.6008 30.9125L35.4883 49.025C34.9633 49.55 34.2508 49.85 33.5008 49.85C32.7508 49.85 32.0383 49.55 31.5133 49.025L22.4383 39.95C21.3508 38.8625 21.3508 37.0625 22.4383 35.975C23.5258 34.8875 25.3258 34.8875 26.4133 35.975L33.5008 43.0625L49.6258 26.9375C50.7133 25.85 52.5133 25.85 53.6008 26.9375C54.6883 28.025 54.6883 29.825 53.6008 30.9125Z" fill="#32A693"/>
</svg>
